<svg xmlns="http://www.w3.org/2000/svg" width="81.24" height="75.825" viewBox="0 0 81.24 75.825">
  <g id="noun-cradle-2671316" transform="translate(0 0)">
    <g id="Grupo_117" data-name="Grupo 117" transform="translate(5.415 35.213)">
      <path id="Trazado_182" data-name="Trazado 182" d="M192.408,332.9a1.386,1.386,0,0,0-.959-.4H123.761a1.363,1.363,0,0,0-1.361,1.361v24.367a1.374,1.374,0,0,0,1.361,1.362h67.687a1.374,1.374,0,0,0,1.361-1.362V333.862A1.3,1.3,0,0,0,192.408,332.9Zm-57.817,23.965h-9.468v-21.66h9.468Zm12.191,0h-9.468v-21.66h9.468Zm18.952,0H149.49v-21.66h16.245Zm12.176,0h-9.468v-21.66h9.468Zm12.191,0h-9.468v-21.66H190.1Z" transform="translate(-122.4 -332.5)" fill="#67b066"/>
    </g>
    <path id="Trazado_183" data-name="Trazado 183" d="M168.238,135.1a1.386,1.386,0,0,0-.959-.4H94.687a18.7,18.7,0,0,1-1.857-8.122,18.994,18.994,0,0,1,17.606-18.906v4.007h-8.122a1.363,1.363,0,0,0-1.361,1.361V118.7a4.06,4.06,0,1,0,2.692,0v-4.317h6.776v.325a5.442,5.442,0,0,0-2.707,5.106c0,3.032,1.779,5.415,4.054,5.415s4.053-2.383,4.053-5.415a5.408,5.408,0,0,0-.619-2.94,5.513,5.513,0,0,0-2.089-2.166v-.325h6.776V118.7a4.058,4.058,0,1,0,2.723,0v-5.663a1.374,1.374,0,0,0-1.361-1.361h-8.122v-5.415a1.374,1.374,0,0,0-1.361-1.361A21.639,21.639,0,0,0,91.7,134.682h-2.94a1.363,1.363,0,0,0-1.361,1.361v29.782a6.694,6.694,0,0,0,1.114,3.7,6.807,6.807,0,0,0,2.955,2.491V178h-.015v2.723h8.138V172.6h56.857v8.076h8.122v-8.664a6.78,6.78,0,0,0,4.069-6.189V136.059A1.3,1.3,0,0,0,168.238,135.1Zm-64.98-11.635a1.386,1.386,0,0,1-.959.4,1.363,1.363,0,0,1-1.253-.835,1.331,1.331,0,0,1,.294-1.47,1.35,1.35,0,0,1,2.305.959A1.217,1.217,0,0,1,103.258,123.466Zm17.993-2.305A1.363,1.363,0,0,1,122.5,122a1.331,1.331,0,0,1-.294,1.47,1.35,1.35,0,0,1-2.305-.959A1.347,1.347,0,0,1,121.251,121.16Zm-9.468-4.054c.557,0,1.361,1.052,1.361,2.707s-.8,2.707-1.361,2.707-1.361-1.052-1.361-2.707S111.226,117.107,111.783,117.107ZM96.9,178.018H94.192V172.6H96.9Zm64.98,0h-2.708V172.6h2.708Zm4.054-12.176a4.067,4.067,0,0,1-4.069,4.069H94.176a4.1,4.1,0,0,1-2.878-1.191,4.011,4.011,0,0,1-1.191-2.878V137.405h75.81v28.436Z" transform="translate(-87.4 -104.9)" fill="#67b066"/>
  </g>
</svg>
