<svg xmlns="http://www.w3.org/2000/svg" width="67.808" height="80.365" viewBox="0 0 67.808 80.365">
  <path id="Trazado_184" data-name="Trazado 184" d="M130.787,55.267a4.49,4.49,0,1,0-1.315,3.17,4.485,4.485,0,0,0,1.315-3.17ZM126.3,57.24a1.973,1.973,0,1,1,1.973-1.973A1.974,1.974,0,0,1,126.3,57.24ZM181.184,37.1l-.387-1,0,0-1.927-5.017a1.256,1.256,0,0,0-1.622-.723l-31.81,12.221a3.764,3.764,0,0,0-2.167,4.867l.58,1.51-9.212,3.54a8.823,8.823,0,0,0-5.561-5.561l3.54-9.212,1.509.58h0a3.774,3.774,0,0,0,4.868-2.166l12.22-31.81h0a1.256,1.256,0,0,0-.722-1.622L145.474.775l0,0-1-.389h0a5.569,5.569,0,0,0-7.186,3.2L119.6,49.591a8.753,8.753,0,0,0-1.9,7.48l-3.587,3.587a1.256,1.256,0,0,0,0,1.776l1.706,1.706a7.135,7.135,0,0,0,5.854,11.219h36.149a6.29,6.29,0,0,0,6.152,5.023H169a1.256,1.256,0,0,0,1.256-1.256V77.869h3.767a1.256,1.256,0,0,0,0-2.511h-3.767V72.847h3.767a1.256,1.256,0,0,0,0-2.511h-3.767V69.08A1.256,1.256,0,0,0,169,67.824h-5.023a6.29,6.29,0,0,0-6.152,5.023H121.674a4.625,4.625,0,0,1-4.035-6.888l1.5,1.5a1.256,1.256,0,0,0,1.776,0L124.5,63.87h0a8.751,8.751,0,0,0,7.48-1.9L177.988,44.29a5.566,5.566,0,0,0,3.2-7.19ZM163.976,70.335h3.767v7.534h-3.767a3.767,3.767,0,1,1,0-7.534ZM146.334,44.922l30.639-11.771L178,35.829,146.191,48.051l-.577-1.506h0a1.256,1.256,0,0,1,.721-1.623Zm-9.686-9.686a1.259,1.259,0,0,1-1.623.721l-1.506-.579L145.74,3.567l2.679,1.03Zm2.977-30.754a3.054,3.054,0,0,1,2.851-1.956,3,3,0,0,1,.918.144L126.56,46.483a9.357,9.357,0,0,0-3.273.53ZM121.93,62.888l-1.9,1.9-3.247-3.247,1.9-1.9A9.084,9.084,0,0,0,121.93,62.888Zm-1.9-7.62a6.309,6.309,0,1,1,1.848,4.43A6.277,6.277,0,0,1,120.026,55.267ZM178.779,40.34a3.023,3.023,0,0,1-1.69,1.606h0L134.558,58.284a9.454,9.454,0,0,0,.534-3.017c0-.087,0-.172,0-.255L178.9,38.177a3.034,3.034,0,0,1-.123,2.162Z" transform="translate(-113.746 -0.016)" fill="#67b066"/>
</svg>
