<svg xmlns="http://www.w3.org/2000/svg" width="102" height="102" viewBox="0 0 102 102">
  <g id="Grupo_98" data-name="Grupo 98" transform="translate(-728 -1765)">
    <g id="Trazado_172" data-name="Trazado 172" transform="translate(728 1765)" fill="#fff">
      <path d="M 51 99.75 C 44.41780090332031 99.75 38.03369140625 98.46137237548828 32.02498626708984 95.91990661621094 C 26.22013854980469 93.46466064453125 21.00638389587402 89.94929504394531 16.52853775024414 85.47145843505859 C 12.05070781707764 80.99361419677734 8.535338401794434 75.77986145019531 6.080092430114746 69.97501373291016 C 3.538630723953247 63.96630859375 2.25 57.58219909667969 2.25 51 C 2.25 44.41780090332031 3.538630723953247 38.03369140625 6.080092430114746 32.02498626708984 C 8.535338401794434 26.22013854980469 12.05070781707764 21.00638389587402 16.52853775024414 16.52853775024414 C 21.00638389587402 12.05070781707764 26.22013854980469 8.535338401794434 32.02498626708984 6.080092430114746 C 38.03369140625 3.538630723953247 44.41780090332031 2.25 51 2.25 C 57.58219909667969 2.25 63.96630859375 3.538630723953247 69.97501373291016 6.080092430114746 C 75.77986145019531 8.535338401794434 80.99361419677734 12.05070781707764 85.47145843505859 16.52853775024414 C 89.94929504394531 21.00638389587402 93.46466064453125 26.22013854980469 95.91990661621094 32.02498626708984 C 98.46137237548828 38.03369140625 99.75 44.41780090332031 99.75 51 C 99.75 57.58219909667969 98.46137237548828 63.96630859375 95.91990661621094 69.97501373291016 C 93.46466064453125 75.77986145019531 89.94929504394531 80.99361419677734 85.47145843505859 85.47145843505859 C 80.99361419677734 89.94929504394531 75.77986145019531 93.46466064453125 69.97501373291016 95.91990661621094 C 63.96630859375 98.46137237548828 57.58219909667969 99.75 51 99.75 Z" stroke="none"/>
      <path d="M 51 4.5 C 44.72056579589844 4.5 38.63133239746094 5.728836059570312 32.90148162841797 8.152351379394531 C 27.36483001708984 10.49416351318359 22.39146423339844 13.84760284423828 18.11952972412109 18.11952972412109 C 13.84760284423828 22.39146423339844 10.49416351318359 27.36483001708984 8.152351379394531 32.90148162841797 C 5.728836059570312 38.63133239746094 4.5 44.72056579589844 4.5 51 C 4.5 57.27943420410156 5.728836059570312 63.36866760253906 8.152351379394531 69.09851837158203 C 10.49416351318359 74.63516235351562 13.84760284423828 79.60853576660156 18.11952972412109 83.88046264648438 C 22.39146423339844 88.15239715576172 27.36483001708984 91.50583648681641 32.90148162841797 93.84764862060547 C 38.63133239746094 96.27116394042969 44.72056579589844 97.5 51 97.5 C 57.27943420410156 97.5 63.36866760253906 96.27116394042969 69.09851837158203 93.84764862060547 C 74.63516235351562 91.50583648681641 79.60853576660156 88.15239715576172 83.88046264648438 83.88046264648438 C 88.15239715576172 79.60853576660156 91.50583648681641 74.63516235351562 93.84764862060547 69.09851837158203 C 96.27116394042969 63.36866760253906 97.5 57.27943420410156 97.5 51 C 97.5 44.72056579589844 96.27116394042969 38.63133239746094 93.84764862060547 32.90148162841797 C 91.50583648681641 27.36483001708984 88.15239715576172 22.39146423339844 83.88046264648438 18.11952972412109 C 79.60853576660156 13.84760284423828 74.63516235351562 10.49416351318359 69.09851837158203 8.152351379394531 C 63.36866760253906 5.728836059570312 57.27943420410156 4.5 51 4.5 M 51 0 C 79.16651916503906 0 102 22.83348083496094 102 51 C 102 79.16651916503906 79.16651916503906 102 51 102 C 22.83348083496094 102 0 79.16651916503906 0 51 C 0 22.83348083496094 22.83348083496094 0 51 0 Z" stroke="none" fill="#67b066"/>
    </g>
    <path id="noun-wifi-3381330" d="M150.285,175.451a4.671,4.671,0,1,1-6.607,0A4.674,4.674,0,0,1,150.285,175.451Zm-11.992-5.77a12.3,12.3,0,0,1,17.378,0,2.39,2.39,0,0,0,3.38-3.38,17.075,17.075,0,0,0-24.138,0,2.39,2.39,0,0,0,3.38,3.38ZM127.914,159.3a26.977,26.977,0,0,1,38.136,0,2.39,2.39,0,1,0,3.38-3.38,31.758,31.758,0,0,0-44.9,0,2.39,2.39,0,0,0,3.38,3.38Zm-8.969-9.454a39.668,39.668,0,0,1,56.073,0,2.391,2.391,0,0,0,3.38-3.382,44.449,44.449,0,0,0-62.833,0,2.391,2.391,0,0,0,3.38,3.382Z" transform="translate(631.756 1659.355)" fill="#67b066" fill-rule="evenodd"/>
  </g>
</svg>
