<svg xmlns="http://www.w3.org/2000/svg" viewBox="0 0 122.78 122.78"><defs><style>.cls-1{fill:#fff;}.cls-2{fill:#67b066;}</style></defs><g id="DESIGNED_BY_FREEPIK" data-name="DESIGNED BY FREEPIK"><rect class="cls-1" width="122.78" height="122.78"/><g id="noun-reception-1909828"><path id="Trazado_57" data-name="Trazado 57" class="cls-2" d="M116.64,107.43H73l-2.46-6.14h46.09a2.05,2.05,0,0,0,2-2.05h0V95.15a6.12,6.12,0,0,0-4.14-5.77A53.24,53.24,0,0,0,63.44,37.91V33.76h4.09a6.14,6.14,0,1,0,0-12.28H55.25a6.14,6.14,0,0,0,0,12.28h4.09v4.15A53.24,53.24,0,0,0,8.23,89.38a6.12,6.12,0,0,0-4.14,5.77v4.09a2.05,2.05,0,0,0,2.05,2.05H52.23l-2.46,6.14H6.14A6.14,6.14,0,0,0,0,113.57H0v4.09a2.05,2.05,0,0,0,2.05,2H120.73a2.05,2.05,0,0,0,2-2h0v-4.09a6.14,6.14,0,0,0-6.14-6.14ZM53.21,27.62a2,2,0,0,1,2-2H67.53a2,2,0,1,1,0,4.09H55.25A2,2,0,0,1,53.21,27.62ZM61.39,42A49.17,49.17,0,0,1,110.46,89H12.32A49.17,49.17,0,0,1,61.39,42ZM8.19,95.15a2.05,2.05,0,0,1,2.05-2.05H112.55a2,2,0,0,1,2,2.05h0v2H8.19Zm48.45,6.14h9.51l2.45,6.14H54.18Zm62.05,14.32H4.09v-2a2.05,2.05,0,0,1,2.05-2h110.5a2.05,2.05,0,0,1,2,2h0Z"/><path id="Trazado_58" data-name="Trazado 58" class="cls-2" d="M18.93,76.05l3.86,1.37A40.92,40.92,0,0,1,41.9,55.06L40,51.46h0a45,45,0,0,0-21,24.59Z"/><path id="Trazado_59" data-name="Trazado 59" class="cls-2" d="M44.24,49.42l1.56,3.79h0a38.23,38.23,0,0,1,3.89-1.38l-1.17-3.92h0c-1.45.43-2.88.94-4.28,1.51Z"/><path id="Trazado_60" data-name="Trazado 60" class="cls-2" d="M59.34,3.07h4.1V15.35h-4.1Z"/><path id="Trazado_61" data-name="Trazado 61" class="cls-2" d="M32.74,25.58H45v4.09H32.74Z"/><path id="Trazado_62" data-name="Trazado 62" class="cls-2" d="M39,10.16l2.89-2.9L50.56,16l-2.89,2.89Z"/><path id="Trazado_63" data-name="Trazado 63" class="cls-2" d="M72.22,16,80.9,7.26l2.9,2.9-8.69,8.68Z"/><path id="Trazado_64" data-name="Trazado 64" class="cls-2" d="M77.76,25.58H90v4.09H77.76Z"/></g></g></svg>