<svg xmlns="http://www.w3.org/2000/svg" width="198" height="89.097" viewBox="0 0 198 89.097">
  <g id="Grupo_99" data-name="Grupo 99" transform="translate(-475 -1555.723)">
    <path id="Trazado_173" data-name="Trazado 173" d="M255.469,248.4h-31.76a3.064,3.064,0,0,0-3.063,3.063v3.959a3.064,3.064,0,0,0,3.063,3.063h31.734a3.064,3.064,0,0,0,3.063-3.063v-3.959a3.026,3.026,0,0,0-3.037-3.063Zm-1.477,3.431v3.221h-28.8v-3.221Zm83.084-39.84c-.766-8.449-6.733-8.792-7.022-8.818H148.332a7.457,7.457,0,0,0-7.366,6.309l-.026.212c-2.534,32.263.871,53.251,2.271,58.347,1.055,5.571,4.514,7.551,7.418,7.551a3.2,3.2,0,0,0,.634-.053H326.543a8.871,8.871,0,0,0,8.555-6.864c1.451-6.284,2.007-19.167,2.508-26.481a2.708,2.708,0,0,0,.053-.5,171.425,171.425,0,0,0-.582-29.7Zm-19.035,53.463a14.674,14.674,0,0,1-1.98,5.571h-153.5a16.093,16.093,0,0,1-1.637-5.571Zm8.5,5.571H321.13a20.657,20.657,0,0,0,1.61-7.946,2.273,2.273,0,0,0-2.271-2.191h-162.1a2.291,2.291,0,0,0-1.663.713,2.417,2.417,0,0,0-.608,1.716A28.364,28.364,0,0,0,157.572,271h-6.521c-.449.026-2.667-.053-3.484-4.039a188.763,188.763,0,0,1-2.825-22.969H332.875c-.529,6.337-1,18.217-2.245,23.63a4.165,4.165,0,0,1-4.09,3.4ZM148.333,207.71H329.894c.1,0,2.3.343,2.692,4.779a167.381,167.381,0,0,1,.659,27.009l-188.666,0a278.461,278.461,0,0,1,.845-29.252,2.943,2.943,0,0,1,2.9-2.534Z" transform="translate(334.972 1352.553)" fill="#67b066"/>
    <path id="Trazado_174" data-name="Trazado 174" d="M527.738,1644.82v-11.847" transform="translate(33)" fill="none" stroke="#67b066" stroke-width="4"/>
    <path id="Trazado_178" data-name="Trazado 178" d="M527.738,1644.82v-11.847" transform="translate(19.738)" fill="none" stroke="#67b066" stroke-width="4"/>
    <path id="Trazado_175" data-name="Trazado 175" d="M527.738,1644.82v-11.847" transform="translate(46.262)" fill="none" stroke="#67b066" stroke-width="4"/>
    <path id="Trazado_176" data-name="Trazado 176" d="M527.738,1644.82v-11.847" transform="translate(46.262)" fill="none" stroke="#67b066" stroke-width="4"/>
    <path id="Trazado_177" data-name="Trazado 177" d="M527.738,1644.82v-11.847" transform="translate(59.524)" fill="none" stroke="#67b066" stroke-width="4"/>
    <path id="Trazado_179" data-name="Trazado 179" d="M527.738,1644.82v-11.847" transform="translate(72.786)" fill="none" stroke="#67b066" stroke-width="4"/>
  </g>
</svg>
