<svg xmlns="http://www.w3.org/2000/svg" viewBox="0 0 122.79 132.81"><defs><style>.cls-1{fill:#fff;}.cls-2{fill:#67b066;}</style></defs><g id="DESIGNED_BY_FREEPIK" data-name="DESIGNED BY FREEPIK"><rect class="cls-1" width="122.79" height="132.81"/><g id="noun-luggage-1909819"><path id="Trazado_39" data-name="Trazado 39" class="cls-2" d="M120.74,105.29h-4.09V48A32.77,32.77,0,0,0,83.91,15.25H67.54V13.2a6.14,6.14,0,0,0-12.28,0h0v2.05H38.89A32.79,32.79,0,0,0,6.15,48v57.3H2.06a2.05,2.05,0,0,0-2.05,2v8.18a2.05,2.05,0,0,0,2.05,2H7.29a8.17,8.17,0,1,0,15.23,4.1h0a8.11,8.11,0,0,0-1.13-4.1h80a8.17,8.17,0,1,0,15.23,4.11h0a8.12,8.12,0,0,0-1.14-4.1h5.23a2,2,0,0,0,2.05-2h0v-8.19a2,2,0,0,0-2.05-2ZM59.36,13.2a2,2,0,0,1,4.09,0h0v2.05H59.36ZM10.25,48A28.68,28.68,0,0,1,38.89,19.34h45A28.68,28.68,0,0,1,112.56,48v57.3h-8.19V74.59a2,2,0,0,0-2-2H96.19v-2a6.14,6.14,0,0,0-6.14-6.14H67.54V54.13a8.19,8.19,0,0,0-8.18-8.19H53.21V39.43a6.12,6.12,0,0,0-2-11.9H34.8a6.13,6.13,0,0,0-2,11.9v6.51H26.61a8.19,8.19,0,0,0-8.18,8.19h0v47.06a8.12,8.12,0,0,0,1.14,4.1H10.25ZM92.1,88.92v16.37H63.45V88.92H59.36v16.37h-4.1V76.64h45v28.65H96.19V88.92ZM26.61,105.29a4.1,4.1,0,0,1-4.09-4.1h0V54.13A4.09,4.09,0,0,1,26.61,50h0v2a6.14,6.14,0,0,0,6.14,6.14H53.21a6.14,6.14,0,0,0,6.14-6.14h0V50a4.1,4.1,0,0,1,4.1,4.09h0V64.74a6.15,6.15,0,0,0-4.1,5.76v2H53.21a2,2,0,0,0-2,2h0v2H28.66a2.05,2.05,0,0,0-2.05,2h0V99.15a2,2,0,0,0,2.05,2H51.17v4.1ZM51.17,35.71H34.8a2,2,0,1,1,0-4.09H51.17a2,2,0,1,1,0,4.09Zm-14.32,4.1H49.12v6.13H36.85ZM55.26,50v2a2,2,0,0,1-2,2.05H32.75a2,2,0,0,1-2-2.05V50ZM92.09,72.55H63.45v-2a2,2,0,0,1,2-2H90.05a2.05,2.05,0,0,1,2,2h0ZM51.17,84.82H30.71V80.73H51.17Zm-20.46,4.1H51.17V97.1H30.71ZM18.43,121.66a4.1,4.1,0,1,1-1.2-2.9A4.09,4.09,0,0,1,18.43,121.66Zm94.13,0a4.1,4.1,0,1,1-1.2-2.9,4.09,4.09,0,0,1,1.2,2.9Zm6.14-8.19H4.11v-4.09H118.7Z"/><path id="Trazado_40" data-name="Trazado 40" class="cls-2" d="M59.36,80.73h4.09v4.09H59.36Z"/><path id="Trazado_41" data-name="Trazado 41" class="cls-2" d="M92.1,80.73h4.09v4.09H92.1Z"/><path id="Trazado_42" data-name="Trazado 42" class="cls-2" d="M28.66,62.31h4.1v4.1h-4.1Z"/><path id="Trazado_43" data-name="Trazado 43" class="cls-2" d="M36.85,62.31h4.09v4.1H36.85Z"/></g></g></svg>