<svg xmlns="http://www.w3.org/2000/svg" width="67.101" height="65.44" viewBox="0 0 67.101 65.44">
  <g id="noun-blower-2587781" transform="translate(0 0)">
    <path id="Trazado_181" data-name="Trazado 181" d="M137.9,158.817l2.014,8.794c2.9,12.7-16.24,17.838-19.7,4.446L114.893,145.2h0a17.338,17.338,0,0,1,11.045-30.7c10.308,0,22.395,3.015,32.911,4.432v3.1h3.4v-3.473c5.932,0,7.849.014,13.448.014v26.118c-6.113,0-7.349-.014-13.448-.014v-3.042h-3.4v3.1c-7.794,1.056-15.532,2.6-23.326,3.626l.264,1.153ZM116.06,132.032l10-10.364,1.473,1.445-10,10.364Zm1.889,4.237,12.309-12.892,1.473,1.445-12.309,12.892Zm54.223-14.448-6.4-.028V141.6h6.4ZM118.019,143.3l5.64,28.077c1.987,8.433,14.768,5.474,12.837-2.987l-5.265-23.034c8.113-.959,16.032-2.487,24.1-3.668v-19.7c-9.391-1.375-20.144-3.973-29.4-3.973a13.815,13.815,0,0,0-13.823,13.823,15.086,15.086,0,0,0,5.9,11.461Z" transform="translate(-108.6 -114.5)" fill="#67b066"/>
    <rect id="Rectángulo_70" data-name="Rectángulo 70" width="3.404" height="13.906" transform="translate(50.236 10.392)" fill="#fff"/>
  </g>
</svg>
