<svg xmlns="http://www.w3.org/2000/svg" viewBox="0 0 121.15 131.04"><defs><style>.cls-1{fill:#fff;}.cls-2{fill:#67b066;}</style></defs><g id="DESIGNED_BY_FREEPIK" data-name="DESIGNED BY FREEPIK"><rect class="cls-1" width="121.15" height="131.04"/><g id="noun-breakfast-1909798"><path id="Trazado_19" data-name="Trazado 19" class="cls-2" d="M119.11,69.8H61.78a2.05,2.05,0,0,0-2.05,2h0V90.26h-4V41.15a2,2,0,0,0-.17-.8l-6-13.93V16.6a2.05,2.05,0,0,0-2-2.05H10.66A2.05,2.05,0,0,0,8.61,16.6v9.82l-6,13.94a2,2,0,0,0-.17.8v70.3a6.47,6.47,0,0,0,4,11.55H106.83a2,2,0,0,0,1.84-1.13l3.52-7h9v-4.1H102.66a20.46,20.46,0,0,0,8.17-14.49,12.28,12.28,0,0,0,10.32-12.11V71.85a2,2,0,0,0-2-2ZM43.4,90.26V43.2h8.18V90.26ZM30.08,92.48a6.16,6.16,0,0,0-1.19,2.08l-10,2.84h0A6.5,6.5,0,0,0,14.29,103l-7.72,5.51V43.2H39.31V90.26H35a6.48,6.48,0,0,0-4.88,2.22ZM12,28.88H44.39L40,39.1H7.62ZM50.53,39.1H44.45l3-7.08ZM12.71,18.64H45.45v6.14H12.71Zm-8.5,98.63a2.39,2.39,0,0,1,.88-2.7l9.8-7,2.27,11.34H6.48a2.39,2.39,0,0,1-2.27-1.64ZM18.37,104.1a2.39,2.39,0,0,1,1.68-2.76l8.66-2.48,2.71,20H21.33Zm14.22-7a2.39,2.39,0,0,1,2.06-2.68l.31,0H59.74A20.44,20.44,0,0,0,68,110.73H51.58v4.09h9l2.05,4.09H35.55Zm75,17.76-2,4.09H67.17l-2-4.09Zm-.78-20.5a16.43,16.43,0,0,1-16.4,16.4H80.23a16.44,16.44,0,0,1-16.4-16.4V73.89h43Zm10.23-10.2A8.17,8.17,0,0,1,110.92,92V73.89h6.14Z"/><path id="Trazado_20" data-name="Trazado 20" class="cls-2" d="M82.24,106.63h2.05v-4.09H82.24A10.24,10.24,0,0,1,72,92.31v-2H67.92v2A14.34,14.34,0,0,0,82.24,106.63Z"/><path id="Trazado_21" data-name="Trazado 21" class="cls-2" d="M67.92,82.08H72v4.09H67.92Z"/><path id="Trazado_22" data-name="Trazado 22" class="cls-2" d="M72.05,65.71a6.13,6.13,0,0,1,6.13-6.14h29.67a7.17,7.17,0,1,0,0-14.33H83.3a3.07,3.07,0,1,1,0-6.14h9.21a10.23,10.23,0,0,0,10.23-10.23H98.65A6.13,6.13,0,0,1,92.52,35H83.31a7.17,7.17,0,1,0,0,14.33h24.54a3.07,3.07,0,1,1,0,6.13H78.18A10.26,10.26,0,0,0,68,65.71Z"/><path id="Trazado_23" data-name="Trazado 23" class="cls-2" d="M22.94,53.43a8.19,8.19,0,1,0,5.78,2.4A8.19,8.19,0,0,0,22.94,53.43Zm0,12.28a4.1,4.1,0,1,1,2.89-1.2A4.1,4.1,0,0,1,22.94,65.71Z"/><path id="Trazado_24" data-name="Trazado 24" class="cls-2" d="M14.75,73.89H31.12V78H14.75Z"/><path id="Trazado_25" data-name="Trazado 25" class="cls-2" d="M14.75,82.08H31.12v4.09H14.75Z"/></g></g></svg>