<svg xmlns="http://www.w3.org/2000/svg" width="39" height="39" viewBox="0 0 39 39">
  <g id="Grupo_59" data-name="Grupo 59" transform="translate(-1618 -686)">
    <g id="Elipse_17" data-name="Elipse 17" transform="translate(1618 686)" fill="#fff" stroke="#e96500" strokeWidth="1.5">
      <circle cx="19.5" cy="19.5" r="19.5" stroke="none"/>
      <circle cx="19.5" cy="19.5" r="18.75" fill="none"/>
    </g>
    <g id="Grupo_26" data-name="Grupo 26" transform="translate(1629.378 697.324)">
      <path id="Trazado_54" data-name="Trazado 54" d="M43.262,7.231c-1.91-1.736-3.9-1.793-5.709.012L34.992,9.71A3.032,3.032,0,0,1,38,9.669s1.11-1.107,1.385-1.341a1.842,1.842,0,0,1,2.406.371,2.076,2.076,0,0,1,0,2.935L38.86,14.566a2.117,2.117,0,0,1-2.934,0,1.669,1.669,0,0,1-.373-.529l-1.53,1.455a3.693,3.693,0,0,0,.436.542,4.147,4.147,0,0,0,5.867,0L43.262,13.1A4.151,4.151,0,0,0,43.262,7.231Z" transform="translate(-28.845 -5.909)" fill="#e96500"/>
      <path id="Trazado_55" data-name="Trazado 55" d="M11.454,38.556l-.891.909A2.075,2.075,0,0,1,7.628,36.53l3.111-3.091a1.856,1.856,0,0,1,2.037-.308,2.144,2.144,0,0,1,.946.744l1.442-1.362a4.555,4.555,0,0,0-1.452-1.243,3.762,3.762,0,0,0-4.613.91c-.5.5-2.938,2.883-2.938,2.883a4.149,4.149,0,1,0,5.867,5.869l2.355-2.355A3.251,3.251,0,0,1,11.454,38.556Z" transform="translate(-4.947 -26.406)" fill="#e96500"/>
    </g>
  </g>
</svg>
