<svg xmlns="http://www.w3.org/2000/svg" width="39" height="39" viewBox="0 0 39 39">
  <g id="Grupo_58" data-name="Grupo 58" transform="translate(-1562 -686)">
    <g id="Elipse_14" data-name="Elipse 14" transform="translate(1562 686)" fill="#fff" stroke="#e96500" strokeWidth="1.5">
      <circle cx="19.5" cy="19.5" r="19.5" stroke="none"/>
      <circle cx="19.5" cy="19.5" r="18.75" fill="none"/>
    </g>
    <g id="Grupo_25" data-name="Grupo 25" transform="translate(1570.718 697.324)">
      <path id="Trazado_56" data-name="Trazado 56" d="M216.035,56.361A2.362,2.362,0,0,0,213.674,54H196.361A2.362,2.362,0,0,0,194,56.361V67.378a2.362,2.362,0,0,0,2.361,2.361h17.313a2.362,2.362,0,0,0,2.361-2.361Zm-1.574,0V67.378a.787.787,0,0,1-.787.787H196.361a.787.787,0,0,1-.787-.787V56.361a.787.787,0,0,1,.787-.787h17.313a.787.787,0,0,1,.787.787Zm-13.6,5.4-4.058,4.058a.787.787,0,0,0,1.113,1.113l4.058-4.058,1.372,1.372a2.362,2.362,0,0,0,3.338,0l1.372-1.372,4.058,4.058a.787.787,0,0,0,1.113-1.113l-4.058-4.058,4.058-4.058a.787.787,0,1,0-1.113-1.113l-6.543,6.543a.788.788,0,0,1-1.113,0l-6.543-6.543a.787.787,0,0,0-1.113,1.113Z" transform="translate(-194 -54)" fill="#e96500" fill-rule="evenodd"/>
    </g>
  </g>
</svg>
