<?xml version="1.0" encoding="utf-8"?>
<svg version="1.1" id="Capa_1" xmlns="http://www.w3.org/2000/svg" xmlns:xlink="http://www.w3.org/1999/xlink" x="0px" y="0px"
	 viewBox="0 0 700 700" style="enable-background:new 0 0 700 700;" xml:space="preserve">
<style type="text/css">
	.st0{fill:#67B066;}
</style>
<path class="st0" d="M543.9,181.2H156.2c-19.7,0-35.8,16.1-35.8,35.8v266.1c0,19.7,16.1,35.8,35.8,35.8h387.7
	c19.7,0,35.8-16.1,35.8-35.8V216.9C579.6,197.3,563.5,181.2,543.9,181.2L543.9,181.2z M524.6,446.6c5,4.7,5.2,12.5,0.5,17.5
	c-2.4,2.6-5.7,3.9-9,3.9c-3,0-6.1-1.1-8.5-3.4l-101.8-95.5l-44.1,43c-2.4,2.4-5.5,3.5-8.6,3.5c-3,0-6.1-1.1-8.5-3.4l-50.3-47.2
	l-101.9,99.4c-2.4,2.4-5.5,3.5-8.7,3.5c-3.2,0-6.4-1.3-8.9-3.7c-4.8-4.9-4.7-12.7,0.2-17.5l101.1-98.6l-101-94.8
	c-5-4.7-5.2-12.5-0.6-17.5c4.7-5,12.5-5.2,17.5-0.6L353,386.1l154.5-150.6c4.9-4.8,12.7-4.7,17.5,0.2c4.8,4.9,4.7,12.7-0.2,17.5
	l-101.1,98.6L524.6,446.6z"/>
</svg>
