<svg xmlns="http://www.w3.org/2000/svg" viewBox="0 0 533.23 95.52"><g id="DESIGNED_BY_FREEPIK" data-name="DESIGNED BY FREEPIK"><g id="Grupo_60" data-name="Grupo 60"><path id="Trazado_126"  data-name="Trazado 126" d="M194.1,76.86c9.89,0,14.88,3,19.71,5.79,4.54,2.68,8.82,5.2,17.6,5.2s13.05-2.53,17.59-5.2c4.83-2.84,9.83-5.79,19.7-5.79s14.88,3,19.7,5.79c4.55,2.68,8.83,5.2,17.6,5.2s13.06-2.53,17.6-5.2c4.83-2.84,9.82-5.79,19.7-5.79s14.87,3,19.7,5.79c4.54,2.68,8.83,5.2,17.6,5.2s13-2.53,17.59-5.2c4.83-2.84,9.82-5.79,19.7-5.79s14.87,3,19.7,5.79c4.53,2.68,8.82,5.2,17.59,5.2s13.05-2.53,17.6-5.2c4.83-2.84,9.82-5.79,19.7-5.79s14.87,3,19.7,5.79c4.54,2.68,8.83,5.2,17.59,5.2v5.5c-9.88,0-14.87-2.94-19.7-5.79-4.54-2.67-8.83-5.2-17.6-5.2s-13.05,2.53-17.59,5.2c-4.83,2.85-9.82,5.79-19.7,5.79s-14.87-2.94-19.7-5.79c-4.54-2.67-8.83-5.2-17.59-5.2s-13.06,2.53-17.6,5.2c-4.83,2.85-9.82,5.79-19.69,5.79s-14.88-2.94-19.7-5.79c-4.54-2.67-8.83-5.2-17.6-5.2s-13.05,2.53-17.6,5.2c-4.83,2.85-9.82,5.79-19.7,5.79s-14.87-2.94-19.7-5.79c-4.54-2.67-8.83-5.2-17.6-5.2s-13,2.53-17.59,5.2c-4.83,2.85-9.83,5.79-19.7,5.79s-14.88-2.94-19.7-5.78c-4.55-2.68-8.83-5.2-17.6-5.2s-13.06,2.52-17.6,5.2c-4.83,2.85-9.83,5.79-19.7,5.79v-5.5c8.77,0,13.06-2.53,17.6-5.2,4.83-2.85,9.82-5.79,19.7-5.79" fill="#e5e5e5"/><path id="Trazado_127" data-name="Trazado 127" d="M192.37,63c10,0,15,2.5,19.9,4.92,4.6,2.28,8.94,4.44,17.82,4.44s13.23-2.16,17.82-4.44c4.88-2.42,9.92-4.92,19.9-4.92s15,2.5,19.9,4.92c4.6,2.28,8.94,4.44,17.83,4.44s13.22-2.16,17.81-4.44c4.88-2.42,9.93-4.92,19.9-4.92s15,2.5,19.9,4.92c4.6,2.28,8.94,4.44,17.82,4.44s13.22-2.16,17.82-4.44c4.88-2.42,9.92-4.92,19.9-4.92s15,2.5,19.9,4.92c4.6,2.28,8.94,4.44,17.82,4.44s13.22-2.16,17.82-4.44c4.87-2.42,9.92-4.92,19.9-4.92s15,2.5,19.9,4.92c4.59,2.28,8.93,4.44,17.81,4.44V77c-10,0-15-2.5-19.9-4.92-4.6-2.28-8.94-4.44-17.81-4.44s-13.23,2.15-17.83,4.44c-4.87,2.41-9.91,4.92-19.9,4.92s-15-2.5-19.9-4.92c-4.6-2.28-8.94-4.44-17.82-4.44s-13.22,2.15-17.81,4.44C396,74.49,390.94,77,381,77s-15-2.5-19.9-4.92c-4.6-2.28-8.95-4.44-17.83-4.44S330,69.79,325.42,72.08c-4.87,2.41-9.92,4.92-19.9,4.92s-15-2.5-19.9-4.92c-4.59-2.28-8.94-4.44-17.82-4.44S254.58,69.79,250,72.08c-4.88,2.41-9.92,4.92-19.9,4.92s-15-2.5-19.9-4.92c-4.6-2.28-8.94-4.44-17.83-4.44s-13.22,2.15-17.82,4.44c-4.87,2.41-9.92,4.92-19.9,4.92V72.32c8.89,0,13.23-2.16,17.83-4.44,4.87-2.42,9.92-4.92,19.9-4.92" fill="#e5e5e5"/></g><g id="Grupo_61" data-name="Grupo 61" fill="#e5e5e5"><path id="Trazado_126-2"  data-name="Trazado 126-2" d="M40.85,46.47c9.89,0,14.88,2.94,19.71,5.79,4.54,2.67,8.82,5.2,17.6,5.2s13-2.53,17.59-5.2c4.83-2.85,9.83-5.79,19.7-5.79s14.88,2.94,19.7,5.79c4.55,2.67,8.83,5.2,17.6,5.2s13.06-2.53,17.6-5.2c4.83-2.85,9.82-5.79,19.7-5.79s14.87,2.94,19.7,5.79c4.54,2.67,8.83,5.2,17.6,5.2s13.05-2.53,17.59-5.2c4.83-2.85,9.82-5.79,19.7-5.79s14.87,2.94,19.7,5.79c4.53,2.67,8.82,5.2,17.59,5.2s13.05-2.53,17.6-5.2c4.83-2.85,9.82-5.79,19.7-5.79s14.87,2.94,19.7,5.79c4.54,2.67,8.83,5.2,17.59,5.2V63c-9.88,0-14.87-2.94-19.7-5.79-4.54-2.68-8.83-5.2-17.6-5.2s-13.05,2.52-17.59,5.2C316.8,60,311.81,63,301.93,63s-14.87-2.94-19.7-5.79c-4.54-2.68-8.83-5.2-17.59-5.2s-13.06,2.52-17.6,5.2C242.21,60,237.22,63,227.35,63s-14.88-2.94-19.7-5.79c-4.54-2.68-8.83-5.2-17.6-5.2s-13.05,2.52-17.6,5.2C167.62,60,162.63,63,152.75,63s-14.87-2.94-19.7-5.79c-4.54-2.68-8.83-5.2-17.6-5.2s-13,2.52-17.59,5.2C93,60,88,63,78.16,63S63.28,60,58.46,57.17c-4.55-2.68-8.83-5.2-17.6-5.2s-13.06,2.53-17.6,5.2C18.43,60,13.43,63,3.56,63v-5.5c8.77,0,13.06-2.53,17.6-5.2C26,49.42,31,46.47,40.86,46.47"/><path id="Trazado_127-2" fill="#e5e5e5" data-name="Trazado 127-2" d="M39.12,32.56c10,0,15,2.51,19.9,4.93,4.6,2.28,8.94,4.44,17.82,4.44s13.23-2.16,17.82-4.44c4.88-2.42,9.92-4.93,19.9-4.93s15,2.51,19.9,4.93c4.6,2.28,8.94,4.44,17.83,4.44s13.22-2.16,17.81-4.44C175,35.07,180,32.56,190,32.56s15,2.51,19.9,4.93c4.6,2.28,8.94,4.44,17.82,4.44s13.22-2.16,17.82-4.44c4.88-2.42,9.92-4.93,19.9-4.93s15,2.51,19.9,4.93c4.6,2.28,8.94,4.44,17.82,4.44s13.22-2.16,17.82-4.44c4.87-2.42,9.92-4.93,19.9-4.93s15,2.51,19.9,4.93c4.59,2.28,8.93,4.44,17.81,4.44V46.6c-10,0-15-2.5-19.9-4.92-4.6-2.28-8.94-4.44-17.81-4.44s-13.23,2.16-17.83,4.44c-4.87,2.42-9.91,4.92-19.9,4.92s-15-2.5-19.9-4.92c-4.6-2.28-8.94-4.44-17.82-4.44s-13.22,2.16-17.81,4.44c-4.88,2.42-9.93,4.92-19.9,4.92s-15-2.5-19.9-4.92c-4.6-2.28-8.95-4.44-17.83-4.44s-13.22,2.16-17.82,4.44c-4.87,2.42-9.92,4.92-19.9,4.92s-15-2.5-19.9-4.92c-4.59-2.28-8.94-4.44-17.82-4.44s-13.22,2.16-17.82,4.44c-4.88,2.42-9.92,4.92-19.9,4.92s-15-2.5-19.9-4.92C52.33,39.4,48,37.24,39.1,37.24S25.88,39.4,21.28,41.68c-4.87,2.42-9.92,4.92-19.9,4.92V41.93c8.89,0,13.23-2.16,17.83-4.44,4.87-2.42,9.92-4.93,19.9-4.93"/></g><g fill="#e5e5e5" id="Grupo_62" data-name="Grupo 62"><path id="Trazado_126-3" data-name="Trazado 126-3" d="M117.06,16.07c9.88,0,14.87,2.95,19.7,5.79,4.54,2.68,8.83,5.2,17.6,5.2s13.06-2.52,17.6-5.2c4.83-2.84,9.82-5.79,19.7-5.79s14.87,2.95,19.7,5.79c4.54,2.68,8.83,5.2,17.6,5.2s13-2.52,17.59-5.2c4.83-2.84,9.82-5.79,19.7-5.79S281.12,19,286,21.86c4.54,2.68,8.83,5.2,17.6,5.2s13.06-2.52,17.59-5.2C326,19,331,16.07,340.84,16.07s14.87,2.95,19.7,5.79c4.54,2.68,8.83,5.2,17.6,5.2s13.05-2.52,17.6-5.2c4.82-2.84,9.81-5.79,19.7-5.79s14.87,2.95,19.7,5.79c4.53,2.68,8.82,5.2,17.59,5.2v5.5c-9.88,0-14.87-2.94-19.7-5.79-4.54-2.67-8.83-5.2-17.6-5.2s-13.06,2.53-17.59,5.2c-4.83,2.85-9.83,5.79-19.7,5.79s-14.88-2.94-19.7-5.79c-4.54-2.67-8.83-5.2-17.6-5.2s-13,2.53-17.59,5.2c-4.83,2.85-9.82,5.79-19.7,5.79s-14.87-2.94-19.7-5.79c-4.54-2.67-8.82-5.2-17.59-5.2s-13.06,2.53-17.6,5.2c-4.83,2.85-9.82,5.79-19.7,5.79s-14.88-2.94-19.7-5.79c-4.54-2.67-8.83-5.2-17.6-5.2s-13.06,2.53-17.6,5.2c-4.83,2.85-9.82,5.79-19.7,5.79s-14.87-2.94-19.7-5.78c-4.54-2.68-8.83-5.2-17.6-5.2S104,24.1,99.46,26.78c-4.82,2.85-9.82,5.79-19.7,5.79v-5.5c8.77,0,13.06-2.53,17.6-5.2,4.83-2.85,9.83-5.79,19.7-5.79"/><path  id="Trazado_127-3" data-name="Trazado 127-3" d="M115.32,2.17c10,0,15,2.51,19.9,4.92,4.6,2.29,8.94,4.44,17.83,4.44s13.22-2.15,17.82-4.44c4.88-2.41,9.92-4.92,19.9-4.92s15,2.51,19.9,4.92c4.6,2.29,8.94,4.44,17.82,4.44s13.23-2.15,17.82-4.44c4.88-2.41,9.93-4.92,19.9-4.92s15,2.51,19.9,4.92c4.59,2.29,8.94,4.44,17.82,4.44s13.22-2.15,17.81-4.44c4.88-2.41,9.93-4.92,19.9-4.92s15,2.51,19.9,4.92c4.6,2.29,8.94,4.44,17.83,4.44s13.22-2.15,17.81-4.44c4.88-2.41,9.93-4.92,19.9-4.92s15,2.51,19.9,4.92c4.6,2.29,8.94,4.44,17.82,4.44v4.68c-10,0-15-2.5-19.9-4.92C430.3,9,426,6.85,417.08,6.85S403.86,9,399.26,11.29c-4.88,2.42-9.92,4.92-19.9,4.92s-15-2.5-19.9-4.92c-4.6-2.28-8.94-4.44-17.82-4.44S328.41,9,323.82,11.29c-4.88,2.42-9.92,4.92-19.9,4.92s-15-2.5-19.9-4.92c-4.6-2.28-8.94-4.44-17.82-4.44S253,9,248.38,11.29c-4.88,2.42-9.92,4.92-19.9,4.92s-15-2.5-19.9-4.92C204,9,199.64,6.85,190.76,6.85S177.53,9,172.93,11.29c-4.87,2.42-9.92,4.92-19.9,4.92s-15-2.5-19.9-4.92c-4.6-2.28-8.94-4.44-17.82-4.44S102.09,9,97.49,11.29c-4.88,2.42-9.92,4.92-19.9,4.92V11.53c8.88,0,13.23-2.15,17.82-4.44,4.88-2.42,9.93-4.92,19.9-4.92"/></g></g></svg>