<svg xmlns="http://www.w3.org/2000/svg" viewBox="0 0 387.53 35.64"><defs><style>.cls-1{fill:#fff;}</style></defs><g id="DESIGNED_BY_FREEPIK" data-name="DESIGNED BY FREEPIK"><g id="Grupo_62" data-name="Grupo 62"><path id="Trazado_126-3" data-name="Trazado 126-3" class="cls-1" d="M44.63,16.52c9.88,0,14.87,2.95,19.7,5.8,4.54,2.67,8.83,5.2,17.6,5.2S95,25,99.53,22.32c4.83-2.85,9.82-5.8,19.7-5.8s14.87,2.95,19.7,5.8c4.54,2.67,8.82,5.2,17.6,5.2s13.05-2.53,17.59-5.2c4.83-2.85,9.82-5.8,19.7-5.8s14.87,2.95,19.7,5.8c4.54,2.67,8.83,5.2,17.6,5.2s13.06-2.53,17.59-5.2c4.83-2.85,9.82-5.8,19.7-5.8s14.87,2.95,19.7,5.8c4.54,2.67,8.83,5.2,17.6,5.2s13.05-2.53,17.6-5.2c4.82-2.85,9.81-5.8,19.69-5.8s14.88,2.95,19.7,5.8c4.54,2.67,8.83,5.2,17.6,5.2V33c-9.88,0-14.87-3-19.7-5.8-4.54-2.67-8.83-5.2-17.6-5.2s-13.06,2.53-17.59,5.2c-4.83,2.85-9.83,5.8-19.7,5.8s-14.88-3-19.7-5.8c-4.54-2.67-8.83-5.2-17.6-5.2s-13.05,2.53-17.59,5.2C246,30.07,241,33,231.12,33s-14.88-3-19.7-5.8c-4.54-2.67-8.83-5.2-17.59-5.2s-13.06,2.53-17.6,5.2c-4.83,2.85-9.82,5.8-19.7,5.8s-14.88-3-19.7-5.8c-4.54-2.67-8.83-5.2-17.6-5.2s-13.06,2.53-17.6,5.2C96.8,30.07,91.81,33,81.93,33s-14.87-3-19.7-5.79C57.69,24.55,53.4,22,44.63,22S31.57,24.55,27,27.23C22.21,30.08,17.21,33,7.33,33v-5.5c8.77,0,13.06-2.53,17.6-5.2,4.83-2.85,9.82-5.79,19.7-5.79"/><path id="Trazado_127-3" data-name="Trazado 127-3" class="cls-1" d="M42.89,2.62c10,0,15,2.51,19.9,4.93C67.39,9.83,71.73,12,80.62,12S93.84,9.83,98.44,7.55c4.88-2.42,9.92-4.93,19.9-4.93s15,2.51,19.9,4.93c4.6,2.28,8.94,4.43,17.82,4.43s13.23-2.15,17.82-4.43c4.88-2.42,9.92-4.93,19.9-4.93s15,2.51,19.9,4.93C218.27,9.83,222.62,12,231.5,12s13.22-2.15,17.81-4.43c4.88-2.42,9.92-4.93,19.9-4.93s15,2.51,19.9,4.93c4.6,2.28,8.94,4.43,17.82,4.43s13.23-2.15,17.82-4.43c4.88-2.42,9.93-4.93,19.9-4.93s15,2.51,19.9,4.93c4.6,2.28,8.94,4.43,17.82,4.43v4.68c-10,0-15-2.5-19.9-4.92-4.6-2.28-8.94-4.44-17.82-4.44s-13.22,2.16-17.82,4.44c-4.88,2.42-9.92,4.92-19.9,4.92s-15-2.5-19.9-4.92c-4.6-2.28-8.94-4.44-17.82-4.44S256,9.46,251.39,11.74c-4.88,2.42-9.92,4.92-19.9,4.92s-15-2.5-19.9-4.92C207,9.46,202.65,7.3,193.77,7.3S180.55,9.46,176,11.74c-4.88,2.42-9.93,4.92-19.9,4.92s-15-2.5-19.9-4.92c-4.6-2.28-8.94-4.44-17.83-4.44S105.1,9.46,100.5,11.74c-4.88,2.42-9.92,4.92-19.9,4.92s-15-2.5-19.9-4.92C56.1,9.46,51.76,7.3,42.88,7.3S29.66,9.46,25.06,11.74c-4.88,2.42-9.92,4.92-19.9,4.92V12C14,12,18.39,9.83,23,7.55c4.88-2.43,9.92-4.93,19.9-4.93"/></g></g></svg>