<?xml version="1.0" encoding="utf-8"?>
<!-- Generator: Adobe Illustrator 25.4.1, SVG Export Plug-In . SVG Version: 6.00 Build 0)  -->
<svg version="1.1" id="Capa_1" xmlns="http://www.w3.org/2000/svg" xmlns:xlink="http://www.w3.org/1999/xlink" x="0px" y="0px"
	 viewBox="0 0 329.13 331.7" style="enable-background:new 0 0 329.13 331.7;" xml:space="preserve">
<style type="text/css">
	.st0{fill:#FFFFFF;}
</style>
<g>
	<path class="st0" d="M156.79,88.88c-3.59,0-6.05,2.91-6.05,6.4v0.06c0,3.55,2.62,6.43,6.11,6.43c3.58,0,6.08-2.88,6.08-6.37v-0.06
		C162.93,91.79,160.27,88.88,156.79,88.88z M156.79,88.88c-3.59,0-6.05,2.91-6.05,6.4v0.06c0,3.55,2.62,6.43,6.11,6.43
		c3.58,0,6.08-2.88,6.08-6.37v-0.06C162.93,91.79,160.27,88.88,156.79,88.88z M156.79,88.88c-3.59,0-6.05,2.91-6.05,6.4v0.06
		c0,3.55,2.62,6.43,6.11,6.43c3.58,0,6.08-2.88,6.08-6.37v-0.06C162.93,91.79,160.27,88.88,156.79,88.88z M189.23,88.78
		c-2.87,0-5.05,2.4-5.37,5.63h10.65C194.26,91.4,192.53,88.78,189.23,88.78z M156.79,88.88c-3.59,0-6.05,2.91-6.05,6.4v0.06
		c0,3.55,2.62,6.43,6.11,6.43c3.58,0,6.08-2.88,6.08-6.37v-0.06C162.93,91.79,160.27,88.88,156.79,88.88z M189.23,88.78
		c-2.87,0-5.05,2.4-5.37,5.63h10.65C194.26,91.4,192.53,88.78,189.23,88.78z M156.79,88.88c-3.59,0-6.05,2.91-6.05,6.4v0.06
		c0,3.55,2.62,6.43,6.11,6.43c3.58,0,6.08-2.88,6.08-6.37v-0.06C162.93,91.79,160.27,88.88,156.79,88.88z M189.23,88.78
		c-2.87,0-5.05,2.4-5.37,5.63h10.65C194.26,91.4,192.53,88.78,189.23,88.78z M156.79,88.88c-3.59,0-6.05,2.91-6.05,6.4v0.06
		c0,3.55,2.62,6.43,6.11,6.43c3.58,0,6.08-2.88,6.08-6.37v-0.06C162.93,91.79,160.27,88.88,156.79,88.88z M189.23,88.78
		c-2.87,0-5.05,2.4-5.37,5.63h10.65C194.26,91.4,192.53,88.78,189.23,88.78z M156.79,88.88c-3.59,0-6.05,2.91-6.05,6.4v0.06
		c0,3.55,2.62,6.43,6.11,6.43c3.58,0,6.08-2.88,6.08-6.37v-0.06C162.93,91.79,160.27,88.88,156.79,88.88z M189.23,88.78
		c-2.87,0-5.05,2.4-5.37,5.63h10.65C194.26,91.4,192.53,88.78,189.23,88.78z M247.38,164.84c-2.09-1.95-4.8-2.92-8.13-2.92
		c-3.26,0-5.94,0.97-8.03,2.92c-2.09,1.95-3.14,4.59-3.14,7.92s1.05,5.95,3.14,7.86c2.09,1.92,4.77,2.88,8.03,2.88
		s5.95-0.96,8.08-2.88c2.12-1.91,3.18-4.53,3.18-7.86S249.47,166.79,247.38,164.84z M156.79,88.88c-3.59,0-6.05,2.91-6.05,6.4v0.06
		c0,3.55,2.62,6.43,6.11,6.43c3.58,0,6.08-2.88,6.08-6.37v-0.06C162.93,91.79,160.27,88.88,156.79,88.88z M189.23,88.78
		c-2.87,0-5.05,2.4-5.37,5.63h10.65C194.26,91.4,192.53,88.78,189.23,88.78z M247.38,164.84c-2.09-1.95-4.8-2.92-8.13-2.92
		c-3.26,0-5.94,0.97-8.03,2.92c-2.09,1.95-3.14,4.59-3.14,7.92s1.05,5.95,3.14,7.86c2.09,1.92,4.77,2.88,8.03,2.88
		s5.95-0.96,8.08-2.88c2.12-1.91,3.18-4.53,3.18-7.86S249.47,166.79,247.38,164.84z M156.79,88.88c-3.59,0-6.05,2.91-6.05,6.4v0.06
		c0,3.55,2.62,6.43,6.11,6.43c3.58,0,6.08-2.88,6.08-6.37v-0.06C162.93,91.79,160.27,88.88,156.79,88.88z M189.23,88.78
		c-2.87,0-5.05,2.4-5.37,5.63h10.65C194.26,91.4,192.53,88.78,189.23,88.78z M247.38,164.84c-2.09-1.95-4.8-2.92-8.13-2.92
		c-3.26,0-5.94,0.97-8.03,2.92c-2.09,1.95-3.14,4.59-3.14,7.92s1.05,5.95,3.14,7.86c2.09,1.92,4.77,2.88,8.03,2.88
		s5.95-0.96,8.08-2.88c2.12-1.91,3.18-4.53,3.18-7.86S249.47,166.79,247.38,164.84z M156.79,88.88c-3.59,0-6.05,2.91-6.05,6.4v0.06
		c0,3.55,2.62,6.43,6.11,6.43c3.58,0,6.08-2.88,6.08-6.37v-0.06C162.93,91.79,160.27,88.88,156.79,88.88z M189.23,88.78
		c-2.87,0-5.05,2.4-5.37,5.63h10.65C194.26,91.4,192.53,88.78,189.23,88.78z M247.38,164.84c-2.09-1.95-4.8-2.92-8.13-2.92
		c-3.26,0-5.94,0.97-8.03,2.92c-2.09,1.95-3.14,4.59-3.14,7.92s1.05,5.95,3.14,7.86c2.09,1.92,4.77,2.88,8.03,2.88
		s5.95-0.96,8.08-2.88c2.12-1.91,3.18-4.53,3.18-7.86S249.47,166.79,247.38,164.84z M156.79,88.88c-3.59,0-6.05,2.91-6.05,6.4v0.06
		c0,3.55,2.62,6.43,6.11,6.43c3.58,0,6.08-2.88,6.08-6.37v-0.06C162.93,91.79,160.27,88.88,156.79,88.88z M189.23,88.78
		c-2.87,0-5.05,2.4-5.37,5.63h10.65C194.26,91.4,192.53,88.78,189.23,88.78z M247.38,164.84c-2.09-1.95-4.8-2.92-8.13-2.92
		c-3.26,0-5.94,0.97-8.03,2.92c-2.09,1.95-3.14,4.59-3.14,7.92s1.05,5.95,3.14,7.86c2.09,1.92,4.77,2.88,8.03,2.88
		s5.95-0.96,8.08-2.88c2.12-1.91,3.18-4.53,3.18-7.86S249.47,166.79,247.38,164.84z M156.79,88.88c-3.59,0-6.05,2.91-6.05,6.4v0.06
		c0,3.55,2.62,6.43,6.11,6.43c3.58,0,6.08-2.88,6.08-6.37v-0.06C162.93,91.79,160.27,88.88,156.79,88.88z M189.23,88.78
		c-2.87,0-5.05,2.4-5.37,5.63h10.65C194.26,91.4,192.53,88.78,189.23,88.78z M247.38,164.84c-2.09-1.95-4.8-2.92-8.13-2.92
		c-3.26,0-5.94,0.97-8.03,2.92c-2.09,1.95-3.14,4.59-3.14,7.92s1.05,5.95,3.14,7.86c2.09,1.92,4.77,2.88,8.03,2.88
		s5.95-0.96,8.08-2.88c2.12-1.91,3.18-4.53,3.18-7.86S249.47,166.79,247.38,164.84z M156.79,88.88c-3.59,0-6.05,2.91-6.05,6.4v0.06
		c0,3.55,2.62,6.43,6.11,6.43c3.58,0,6.08-2.88,6.08-6.37v-0.06C162.93,91.79,160.27,88.88,156.79,88.88z M189.23,88.78
		c-2.87,0-5.05,2.4-5.37,5.63h10.65C194.26,91.4,192.53,88.78,189.23,88.78z M247.38,164.84c-2.09-1.95-4.8-2.92-8.13-2.92
		c-3.26,0-5.94,0.97-8.03,2.92c-2.09,1.95-3.14,4.59-3.14,7.92s1.05,5.95,3.14,7.86c2.09,1.92,4.77,2.88,8.03,2.88
		s5.95-0.96,8.08-2.88c2.12-1.91,3.18-4.53,3.18-7.86S249.47,166.79,247.38,164.84z M156.79,88.88c-3.59,0-6.05,2.91-6.05,6.4v0.06
		c0,3.55,2.62,6.43,6.11,6.43c3.58,0,6.08-2.88,6.08-6.37v-0.06C162.93,91.79,160.27,88.88,156.79,88.88z M189.23,88.78
		c-2.87,0-5.05,2.4-5.37,5.63h10.65C194.26,91.4,192.53,88.78,189.23,88.78z M247.38,164.84c-2.09-1.95-4.8-2.92-8.13-2.92
		c-3.26,0-5.94,0.97-8.03,2.92c-2.09,1.95-3.14,4.59-3.14,7.92s1.05,5.95,3.14,7.86c2.09,1.92,4.77,2.88,8.03,2.88
		s5.95-0.96,8.08-2.88c2.12-1.91,3.18-4.53,3.18-7.86S249.47,166.79,247.38,164.84z M156.79,88.88c-3.59,0-6.05,2.91-6.05,6.4v0.06
		c0,3.55,2.62,6.43,6.11,6.43c3.58,0,6.08-2.88,6.08-6.37v-0.06C162.93,91.79,160.27,88.88,156.79,88.88z M189.23,88.78
		c-2.87,0-5.05,2.4-5.37,5.63h10.65C194.26,91.4,192.53,88.78,189.23,88.78z M247.38,164.84c-2.09-1.95-4.8-2.92-8.13-2.92
		c-3.26,0-5.94,0.97-8.03,2.92c-2.09,1.95-3.14,4.59-3.14,7.92s1.05,5.95,3.14,7.86c2.09,1.92,4.77,2.88,8.03,2.88
		s5.95-0.96,8.08-2.88c2.12-1.91,3.18-4.53,3.18-7.86S249.47,166.79,247.38,164.84z M156.79,88.88c-3.59,0-6.05,2.91-6.05,6.4v0.06
		c0,3.55,2.62,6.43,6.11,6.43c3.58,0,6.08-2.88,6.08-6.37v-0.06C162.93,91.79,160.27,88.88,156.79,88.88z M189.23,88.78
		c-2.87,0-5.05,2.4-5.37,5.63h10.65C194.26,91.4,192.53,88.78,189.23,88.78z M247.38,164.84c-2.09-1.95-4.8-2.92-8.13-2.92
		c-3.26,0-5.94,0.97-8.03,2.92c-2.09,1.95-3.14,4.59-3.14,7.92s1.05,5.95,3.14,7.86c2.09,1.92,4.77,2.88,8.03,2.88
		s5.95-0.96,8.08-2.88c2.12-1.91,3.18-4.53,3.18-7.86S249.47,166.79,247.38,164.84z M156.79,88.88c-3.59,0-6.05,2.91-6.05,6.4v0.06
		c0,3.55,2.62,6.43,6.11,6.43c3.58,0,6.08-2.88,6.08-6.37v-0.06C162.93,91.79,160.27,88.88,156.79,88.88z M189.23,88.78
		c-2.87,0-5.05,2.4-5.37,5.63h10.65C194.26,91.4,192.53,88.78,189.23,88.78z M247.38,164.84c-2.09-1.95-4.8-2.92-8.13-2.92
		c-3.26,0-5.94,0.97-8.03,2.92c-2.09,1.95-3.14,4.59-3.14,7.92s1.05,5.95,3.14,7.86c2.09,1.92,4.77,2.88,8.03,2.88
		s5.95-0.96,8.08-2.88c2.12-1.91,3.18-4.53,3.18-7.86S249.47,166.79,247.38,164.84z M156.79,88.88c-3.59,0-6.05,2.91-6.05,6.4v0.06
		c0,3.55,2.62,6.43,6.11,6.43c3.58,0,6.08-2.88,6.08-6.37v-0.06C162.93,91.79,160.27,88.88,156.79,88.88z M189.23,88.78
		c-2.87,0-5.05,2.4-5.37,5.63h10.65C194.26,91.4,192.53,88.78,189.23,88.78z M247.38,164.84c-2.09-1.95-4.8-2.92-8.13-2.92
		c-3.26,0-5.94,0.97-8.03,2.92c-2.09,1.95-3.14,4.59-3.14,7.92s1.05,5.95,3.14,7.86c2.09,1.92,4.77,2.88,8.03,2.88
		s5.95-0.96,8.08-2.88c2.12-1.91,3.18-4.53,3.18-7.86S249.47,166.79,247.38,164.84z M156.79,88.88c-3.59,0-6.05,2.91-6.05,6.4v0.06
		c0,3.55,2.62,6.43,6.11,6.43c3.58,0,6.08-2.88,6.08-6.37v-0.06C162.93,91.79,160.27,88.88,156.79,88.88z M189.23,88.78
		c-2.87,0-5.05,2.4-5.37,5.63h10.65C194.26,91.4,192.53,88.78,189.23,88.78z M247.38,164.84c-2.09-1.95-4.8-2.92-8.13-2.92
		c-3.26,0-5.94,0.97-8.03,2.92c-2.09,1.95-3.14,4.59-3.14,7.92s1.05,5.95,3.14,7.86c2.09,1.92,4.77,2.88,8.03,2.88
		s5.95-0.96,8.08-2.88c2.12-1.91,3.18-4.53,3.18-7.86S249.47,166.79,247.38,164.84z M156.79,88.88c-3.59,0-6.05,2.91-6.05,6.4v0.06
		c0,3.55,2.62,6.43,6.11,6.43c3.58,0,6.08-2.88,6.08-6.37v-0.06C162.93,91.79,160.27,88.88,156.79,88.88z M189.23,88.78
		c-2.87,0-5.05,2.4-5.37,5.63h10.65C194.26,91.4,192.53,88.78,189.23,88.78z M247.38,164.84c-2.09-1.95-4.8-2.92-8.13-2.92
		c-3.26,0-5.94,0.97-8.03,2.92c-2.09,1.95-3.14,4.59-3.14,7.92s1.05,5.95,3.14,7.86c2.09,1.92,4.77,2.88,8.03,2.88
		s5.95-0.96,8.08-2.88c2.12-1.91,3.18-4.53,3.18-7.86S249.47,166.79,247.38,164.84z M156.79,88.88c-3.59,0-6.05,2.91-6.05,6.4v0.06
		c0,3.55,2.62,6.43,6.11,6.43c3.58,0,6.08-2.88,6.08-6.37v-0.06C162.93,91.79,160.27,88.88,156.79,88.88z M183.25,282.48h-2.87
		v10.18h2.87c3.04,0,5.09-2.05,5.09-5.04v-0.05C188.34,284.58,186.29,282.48,183.25,282.48z M189.23,88.78
		c-2.87,0-5.05,2.4-5.37,5.63h10.65C194.26,91.4,192.53,88.78,189.23,88.78z M247.38,164.84c-2.09-1.95-4.8-2.92-8.13-2.92
		c-3.26,0-5.94,0.97-8.03,2.92c-2.09,1.95-3.14,4.59-3.14,7.92s1.05,5.95,3.14,7.86c2.09,1.92,4.77,2.88,8.03,2.88
		s5.95-0.96,8.08-2.88c2.12-1.91,3.18-4.53,3.18-7.86S249.47,166.79,247.38,164.84z M183.25,282.48h-2.87v10.18h2.87
		c3.04,0,5.09-2.05,5.09-5.04v-0.05C188.34,284.58,186.29,282.48,183.25,282.48z M156.79,88.88c-3.59,0-6.05,2.91-6.05,6.4v0.06
		c0,3.55,2.62,6.43,6.11,6.43c3.58,0,6.08-2.88,6.08-6.37v-0.06C162.93,91.79,160.27,88.88,156.79,88.88z M189.23,88.78
		c-2.87,0-5.05,2.4-5.37,5.63h10.65C194.26,91.4,192.53,88.78,189.23,88.78z M247.38,164.84c-2.09-1.95-4.8-2.92-8.13-2.92
		c-3.26,0-5.94,0.97-8.03,2.92c-2.09,1.95-3.14,4.59-3.14,7.92s1.05,5.95,3.14,7.86c2.09,1.92,4.77,2.88,8.03,2.88
		s5.95-0.96,8.08-2.88c2.12-1.91,3.18-4.53,3.18-7.86S249.47,166.79,247.38,164.84z M156.79,88.88c-3.59,0-6.05,2.91-6.05,6.4v0.06
		c0,3.55,2.62,6.43,6.11,6.43c3.58,0,6.08-2.88,6.08-6.37v-0.06C162.93,91.79,160.27,88.88,156.79,88.88z M183.25,282.48h-2.87
		v10.18h2.87c3.04,0,5.09-2.05,5.09-5.04v-0.05C188.34,284.58,186.29,282.48,183.25,282.48z M189.23,88.78
		c-2.87,0-5.05,2.4-5.37,5.63h10.65C194.26,91.4,192.53,88.78,189.23,88.78z M208.86,282.48h-3.69v4.85h3.76
		c1.81,0,2.84-0.97,2.84-2.39v-0.05C211.77,283.3,210.66,282.48,208.86,282.48z M247.38,164.84c-2.09-1.95-4.8-2.92-8.13-2.92
		c-3.26,0-5.94,0.97-8.03,2.92c-2.09,1.95-3.14,4.59-3.14,7.92s1.05,5.95,3.14,7.86c2.09,1.92,4.77,2.88,8.03,2.88
		s5.95-0.96,8.08-2.88c2.12-1.91,3.18-4.53,3.18-7.86S249.47,166.79,247.38,164.84z M208.86,282.48h-3.69v4.85h3.76
		c1.81,0,2.84-0.97,2.84-2.39v-0.05C211.77,283.3,210.66,282.48,208.86,282.48z M183.25,282.48h-2.87v10.18h2.87
		c3.04,0,5.09-2.05,5.09-5.04v-0.05C188.34,284.58,186.29,282.48,183.25,282.48z M156.79,88.88c-3.59,0-6.05,2.91-6.05,6.4v0.06
		c0,3.55,2.62,6.43,6.11,6.43c3.58,0,6.08-2.88,6.08-6.37v-0.06C162.93,91.79,160.27,88.88,156.79,88.88z M189.23,88.78
		c-2.87,0-5.05,2.4-5.37,5.63h10.65C194.26,91.4,192.53,88.78,189.23,88.78z M247.38,164.84c-2.09-1.95-4.8-2.92-8.13-2.92
		c-3.26,0-5.94,0.97-8.03,2.92c-2.09,1.95-3.14,4.59-3.14,7.92s1.05,5.95,3.14,7.86c2.09,1.92,4.77,2.88,8.03,2.88
		s5.95-0.96,8.08-2.88c2.12-1.91,3.18-4.53,3.18-7.86S249.47,166.79,247.38,164.84z M274.79,37.41h-40.4v12.14
		c0,6.07-4.76,11-10.61,11c-5.86,0-10.62-4.93-10.62-11V37.41H112.81v12.14c0,6.07-4.76,11-10.62,11c-5.85,0-10.61-4.93-10.61-11
		V37.41H54.34c-12.4,0-22.46,10.06-22.46,22.46v230.16c0,12.41,10.06,22.46,22.46,22.46h220.45c12.4,0,22.45-10.05,22.45-22.46
		V59.87C297.24,47.47,287.19,37.41,274.79,37.41z M216.6,151.07l18.61-24.77c0.92-1.34,2.19-2.02,3.82-2.02h14.78
		c0.64,0,1.17,0.22,1.59,0.64c0.5,0.43,0.75,0.96,0.75,1.6c0,0.35-0.18,0.81-0.53,1.38l-13.4,18.18c-0.14,0.21-0.16,0.42-0.05,0.63
		c0.11,0.22,0.3,0.29,0.58,0.22c3.62,0,7.11,0.63,10.48,1.91c3.36,1.28,6.34,3.03,8.93,5.26c2.58,2.23,4.65,4.91,6.21,8.03
		s2.34,6.55,2.34,10.31c0,5.17-1.34,9.78-4.04,13.82c-2.69,4.04-6.31,7.23-10.84,9.57c-4.75,2.34-10.21,3.5-16.37,3.5
		c-4.11,0-8.08-0.53-11.91-1.59c-3.82-1.06-7.21-2.71-10.15-4.94c-2.94-2.24-5.3-5-7.07-8.3c-1.77-3.29-2.66-7.17-2.66-11.64
		C207.67,166.77,210.65,159.51,216.6,151.07z M201.55,81.32c0-0.67,0.55-1.24,1.22-1.24c0.7,0,1.25,0.57,1.25,1.24v21.19
		c0,0.7-0.51,1.24-1.22,1.24c-0.7,0-1.25-0.54-1.25-1.24V81.32z M181.36,95.31c0-4.77,3.36-8.61,7.94-8.61c4.89,0,7.68,4,7.68,8.38
		c0,0.68-0.55,1.15-1.15,1.15h-11.97c0.35,3.59,2.88,5.6,5.82,5.6c2.05,0,3.55-0.8,4.77-1.92c0.19-0.16,0.42-0.28,0.7-0.28
		c0.61,0,1.09,0.48,1.09,1.05c0,0.29-0.13,0.58-0.38,0.8c-1.57,1.51-3.43,2.5-6.24,2.5c-4.54,0-8.26-3.49-8.26-8.61V95.31z
		 M169.43,87.05h1.34v-3.9c0-0.67,0.51-1.25,1.22-1.25c0.67,0,1.25,0.58,1.25,1.25v3.9h4.28c0.61,0,1.12,0.51,1.12,1.09
		c0,0.61-0.51,1.09-1.12,1.09h-4.28v9.66c0,2.02,1.12,2.75,2.78,2.75c0.86,0,1.31-0.22,1.5-0.22c0.58,0,1.06,0.48,1.06,1.05
		c0,0.45-0.29,0.8-0.71,0.96c-0.7,0.29-1.47,0.45-2.43,0.45c-2.65,0-4.67-1.31-4.67-4.67v-9.98h-1.34c-0.58,0-1.09-0.51-1.09-1.09
		C168.34,87.53,168.85,87.05,169.43,87.05z M148.21,95.34c0-4.67,3.65-8.64,8.64-8.64c4.96,0,8.61,3.9,8.61,8.58v0.06
		c0,4.67-3.68,8.64-8.67,8.64c-4.96,0-8.58-3.91-8.58-8.58V95.34z M149.53,129.7c2.69-2.12,5.77-3.73,9.24-4.83
		c3.48-1.1,7.06-1.65,10.74-1.65c3.69,0,7.25,0.44,10.69,1.33c3.43,0.89,6.46,2.25,9.08,4.09c2.63,1.85,4.73,4.22,6.33,7.12
		c1.59,2.91,2.39,6.38,2.39,10.42c0,5.18-1.56,9.78-4.68,13.82c-0.42,0.5-1.08,1.21-1.96,2.13c-0.89,0.92-1.9,1.95-3.03,3.08
		c-1.14,1.14-2.38,2.34-3.72,3.61c-1.35,1.28-2.7,2.52-4.04,3.73c-3.19,2.97-6.67,6.16-10.42,9.56h26.79c0.85,0,1.49,0.25,1.91,0.75
		c0.5,0.42,0.75,1.02,0.75,1.8v11.38c0,0.71-0.25,1.31-0.75,1.81c-0.5,0.56-1.13,0.85-1.91,0.85h-55.07c-0.71,0-1.33-0.27-1.86-0.8
		c-0.53-0.53-0.8-1.15-0.8-1.86v-7.97c0-2.13,0.89-3.87,2.66-5.21c4.04-3.55,7.76-6.77,11.16-9.68c2.06-1.77,3.72-3.2,5-4.3
		c1.28-1.1,2.5-2.14,3.67-3.14c1.17-0.99,2.21-1.89,3.13-2.71c0.92-0.81,1.6-1.4,2.02-1.75c0.92-0.78,2.01-1.7,3.25-2.77
		c1.24-1.06,2.39-2.21,3.45-3.45s1.97-2.53,2.71-3.88c0.75-1.35,1.12-2.69,1.12-4.04c0-5.24-2.62-7.87-7.87-7.87
		c-2.76,0-4.87,0.84-6.32,2.5c-1.46,1.67-2.43,3.74-2.93,6.22c-0.42,1.63-1.63,2.44-3.61,2.44h-13.93c-0.64,0-1.19-0.21-1.65-0.63
		c-0.46-0.43-0.69-0.96-0.69-1.6c0.07-4.04,0.94-7.6,2.61-10.68C144.65,134.44,146.83,131.83,149.53,129.7z M125.33,82.32
		c0-0.71,0.58-1.28,1.25-1.28c0.7,0,1.28,0.57,1.28,1.28v8.83h12.93v-8.83c0-0.71,0.57-1.28,1.28-1.28c0.67,0,1.24,0.57,1.24,1.28
		v20.15c0,0.71-0.57,1.28-1.24,1.28c-0.71,0-1.28-0.57-1.28-1.28v-8.95h-12.93v8.95c0,0.71-0.58,1.28-1.28,1.28
		c-0.67,0-1.25-0.57-1.25-1.28V82.32z M65.23,133.53c0-2.48,0.88-4.64,2.65-6.48c1.77-1.85,3.97-2.77,6.59-2.77h3.51
		c0.78,0,1.7,0.16,2.77,0.48c1.06,0.32,2.16,1.26,3.29,2.82c4.18,6.52,7.94,12.4,11.27,17.65c2.06,3.18,3.67,5.72,4.84,7.6
		c1.17,1.87,2.28,3.61,3.35,5.2c1.06,1.6,1.94,2.96,2.65,4.1c0.71,1.13,1.14,1.81,1.28,2.02c0,0.14,0.14,0.21,0.42,0.21
		c0.36,0,0.54-0.18,0.54-0.53v-30.3c0-2.76,0.95-4.99,2.87-6.7c1.91-1.7,4.07-2.55,6.48-2.55h6.8c0.78,0,1.42,0.25,1.92,0.75
		c0.49,0.64,0.74,1.31,0.74,2.02v68.56c0,0.64-0.25,1.28-0.74,1.92c-0.57,0.56-1.21,0.85-1.92,0.85h-12.01
		c-1.56,0-2.76-0.67-3.61-2.02c-4.25-6.52-8.08-12.37-11.48-17.54c-2.06-3.12-3.69-5.62-4.89-7.5c-1.21-1.87-2.34-3.61-3.4-5.21
		c-1.07-1.59-1.95-2.94-2.66-4.04c-0.71-1.09-1.14-1.75-1.28-1.96c-0.21-0.21-0.39-0.32-0.53-0.32c-0.35,0-0.53,0.18-0.53,0.53v35.4
		c0,0.78-0.29,1.42-0.85,1.91c-0.57,0.5-1.21,0.75-1.91,0.75H67.88c-0.63,0-1.24-0.29-1.8-0.85c-0.57-0.57-0.85-1.17-0.85-1.81
		V133.53z M45.3,219.17c6.3,0,9.48,1.88,12.56,3.69c2.89,1.71,5.62,3.32,11.21,3.32c5.59,0,8.33-1.61,11.22-3.32
		c3.08-1.81,6.26-3.69,12.56-3.69s9.48,1.88,12.56,3.69c2.89,1.71,5.63,3.32,11.22,3.32c5.59,0,8.32-1.61,11.21-3.32
		c3.08-1.81,6.26-3.69,12.56-3.69c6.3,0,9.48,1.88,12.56,3.69c2.89,1.71,5.63,3.32,11.22,3.32c5.59,0,8.32-1.61,11.21-3.32
		c3.08-1.81,6.27-3.69,12.56-3.69c6.3,0,9.49,1.88,12.56,3.69c2.9,1.71,5.63,3.32,11.22,3.32c5.59,0,8.33-1.61,11.22-3.32
		c3.08-1.81,6.26-3.69,12.56-3.69c6.3,0,9.48,1.88,12.56,3.69c2.9,1.71,5.63,3.32,11.22,3.32c5.59,0,8.33-1.61,11.22-3.32
		c3.08-1.81,6.26-3.69,12.56-3.69v3.51c-5.59,0-8.32,1.61-11.22,3.31c-3.08,1.82-6.26,3.7-12.56,3.7s-9.48-1.88-12.56-3.7
		c-2.9-1.7-5.63-3.31-11.22-3.31c-5.59,0-8.32,1.61-11.22,3.31c-3.08,1.82-6.26,3.7-12.56,3.7s-9.48-1.88-12.56-3.7
		c-2.89-1.7-5.63-3.31-11.22-3.31c-5.59,0-8.32,1.61-11.21,3.31c-3.08,1.82-6.26,3.7-12.56,3.7s-9.48-1.88-12.56-3.7
		c-2.9-1.7-5.63-3.31-11.22-3.31c-5.59,0-8.32,1.61-11.21,3.31c-3.08,1.82-6.27,3.7-12.56,3.7c-6.3,0-9.48-1.88-12.56-3.7
		c-2.9-1.7-5.63-3.31-11.22-3.31c-5.59,0-8.32,1.61-11.22,3.31c-3.07,1.82-6.26,3.7-12.56,3.7c-6.29,0-9.48-1.88-12.56-3.7
		c-2.89-1.7-5.62-3.31-11.21-3.31V219.17z M107.71,288.65c0,5.11-2.87,7.62-7.4,7.62c-4.54,0-7.31-2.53-7.31-7.5v-7.93
		c0-1.03,0.82-1.85,1.86-1.85c1.03,0,1.85,0.82,1.85,1.85v7.84c0,2.75,1.38,4.17,3.64,4.17c2.27,0,3.64-1.38,3.64-4.05v-7.96
		c0-1.03,0.83-1.85,1.86-1.85c1.04,0,1.86,0.82,1.86,1.85V288.65z M114.65,294.1c0,1.16-0.89,2.05-2.09,2.05
		c-1.21,0-2.1-0.89-2.1-2.05v-0.05c0-1.15,0.89-2.04,2.1-2.04c1.2,0,2.09,0.89,2.09,2.04V294.1z M126.83,282.55h-3.57v11.75
		c0,1.03-0.82,1.85-1.86,1.85c-1.03,0-1.85-0.82-1.85-1.85v-11.75h-3.57c-0.94,0-1.71-0.77-1.71-1.71s0.77-1.71,1.71-1.71h10.85
		c0.94,0,1.71,0.77,1.71,1.71S127.77,282.55,126.83,282.55z M132.35,294.1c0,1.16-0.89,2.05-2.1,2.05c-1.2,0-2.09-0.89-2.09-2.05
		v-0.05c0-1.15,0.89-2.04,2.09-2.04c1.21,0,2.1,0.89,2.1,2.04V294.1z M148.67,294.18c-1.52,1.32-3.3,2.12-6,2.12
		c-4.97,0-8.66-3.84-8.66-8.68v-0.05c0-4.8,3.62-8.73,8.8-8.73c2.54,0,4.25,0.68,5.65,1.71c0.38,0.29,0.72,0.82,0.72,1.47
		c0,1.02-0.82,1.81-1.83,1.81c-0.51,0-0.85-0.19-1.11-0.36c-1.04-0.77-2.12-1.2-3.45-1.2c-2.84,0-4.89,2.36-4.89,5.25v0.05
		c0,2.89,2,5.3,4.89,5.3c1.57,0,2.6-0.48,3.67-1.32c0.29-0.24,0.67-0.41,1.1-0.41c0.94,0,1.74,0.77,1.74,1.71
		C149.3,293.43,149.01,293.89,148.67,294.18z M151.53,257.11l-3.33,3.24c-0.12,0.12-0.18,0.28-0.15,0.45l0.78,4.58
		c0.07,0.42-0.36,0.73-0.73,0.54l-4.12-2.17c-0.15-0.08-0.32-0.08-0.47,0l-4.12,2.16c-0.37,0.2-0.81-0.12-0.73-0.53l0.79-4.59
		c0.02-0.16-0.03-0.33-0.15-0.45l-3.33-3.25c-0.3-0.29-0.13-0.8,0.28-0.86l4.61-0.67c0.16-0.02,0.3-0.12,0.38-0.27l2.06-4.17
		c0.19-0.38,0.72-0.38,0.91,0l2.06,4.17c0.07,0.15,0.21,0.25,0.38,0.28l4.6,0.67C151.67,256.3,151.83,256.81,151.53,257.11z
		 M156.08,294.1c0,1.16-0.9,2.05-2.1,2.05c-1.21,0-2.1-0.89-2.1-2.05v-0.05c0-1.15,0.89-2.04,2.1-2.04c1.2,0,2.1,0.89,2.1,2.04
		V294.1z M164.44,294.3c0,1.03-0.82,1.85-1.85,1.85c-1.04,0-1.86-0.82-1.86-1.85v-4.8l-5.45-7.4c-0.26-0.37-0.46-0.8-0.46-1.33
		c0-0.99,0.82-1.78,1.86-1.78c0.84,0,1.37,0.45,1.83,1.13l4.1,5.91l4.17-5.96c0.46-0.67,1.01-1.11,1.79-1.11
		c1.13,0,1.8,0.8,1.8,1.81c0,0.51-0.24,0.96-0.48,1.3l-5.45,7.36V294.3z M169.79,265.38c0.07,0.42-0.37,0.73-0.74,0.54l-4.11-2.17
		c-0.15-0.08-0.33-0.08-0.48,0l-4.11,2.16c-0.38,0.2-0.81-0.12-0.74-0.53l0.79-4.59c0.03-0.16-0.03-0.33-0.15-0.45l-3.32-3.25
		c-0.31-0.29-0.14-0.8,0.28-0.86l4.6-0.67c0.17-0.02,0.31-0.12,0.38-0.27l2.06-4.17c0.19-0.38,0.73-0.38,0.91,0l2.06,4.17
		c0.07,0.15,0.22,0.25,0.38,0.28l4.6,0.67c0.42,0.06,0.59,0.57,0.28,0.87l-3.33,3.24c-0.12,0.12-0.17,0.28-0.14,0.45L169.79,265.38z
		 M173.29,294.1c0,1.16-0.89,2.05-2.1,2.05c-1.2,0-2.09-0.89-2.09-2.05v-0.05c0-1.15,0.89-2.04,2.09-2.04c1.21,0,2.1,0.89,2.1,2.04
		V294.1z M192.22,287.57c0,4.75-3.67,8.44-8.97,8.44h-4.73c-1.03,0-1.85-0.82-1.85-1.86v-13.16c0-1.04,0.82-1.86,1.85-1.86h4.73
		c5.3,0,8.97,3.64,8.97,8.39V287.57z M193.15,257.07l-3.32,3.25c-0.12,0.11-0.18,0.28-0.15,0.44l0.76,4.57
		c0.07,0.41-0.37,0.73-0.74,0.54l-4.08-2.15c-0.14-0.07-0.32-0.07-0.47,0.01l-4.1,2.17c-0.37,0.2-0.8-0.12-0.73-0.53l0.81-4.57
		c0.03-0.17-0.03-0.33-0.14-0.45l-3.3-3.22c-0.29-0.29-0.13-0.8,0.29-0.87l4.58-0.68c0.16-0.03,0.3-0.13,0.38-0.28l2.06-4.16
		c0.19-0.38,0.73-0.38,0.91-0.01l2.02,4.15c0.07,0.15,0.22,0.25,0.38,0.28l4.57,0.65C193.29,256.26,193.46,256.77,193.15,257.07z
		 M198.08,294.1c0,1.16-0.89,2.05-2.1,2.05s-2.1-0.89-2.1-2.05v-0.05c0-1.15,0.89-2.04,2.1-2.04s2.1,0.89,2.1,2.04V294.1z
		 M215.53,284.75c0,2.65-1.32,4.29-3.37,5.13l2.58,3.14c0.36,0.46,0.6,0.84,0.6,1.42c0,1.04-0.87,1.71-1.76,1.71
		c-0.84,0-1.4-0.41-1.83-0.96l-3.62-4.58h-2.96v3.69c0,1.03-0.82,1.85-1.86,1.85c-1.04,0-1.86-0.82-1.86-1.85v-13.31
		c0-1.04,0.82-1.86,1.86-1.86h5.86c2.14,0,3.81,0.6,4.92,1.71c0.94,0.94,1.44,2.27,1.44,3.86V284.75z M222.41,294.1
		c0,1.16-0.9,2.05-2.1,2.05c-1.21,0-2.1-0.89-2.1-2.05v-0.05c0-1.15,0.89-2.04,2.1-2.04c1.2,0,2.1,0.89,2.1,2.04V294.1z
		 M239.57,296.15c-0.86,0-1.44-0.5-1.78-1.28l-1.13-2.65h-7.43l-1.18,2.77c-0.32,0.73-0.94,1.16-1.71,1.16
		c-0.97,0-1.72-0.77-1.72-1.73c0-0.27,0.1-0.53,0.22-0.8l5.88-13.28c0.41-0.92,1.16-1.48,2.17-1.48h0.22c1.01,0,1.74,0.56,2.15,1.48
		l5.88,13.28c0.12,0.27,0.19,0.51,0.19,0.75C241.33,295.36,240.56,296.15,239.57,296.15z M284.45,232.58
		c-5.67,0-8.44,1.38-11.37,2.83c-3.11,1.54-6.32,3.14-12.69,3.14c-6.36,0-9.57-1.6-12.68-3.14c-2.93-1.45-5.7-2.83-11.37-2.83
		c-5.66,0-8.43,1.38-11.36,2.83c-3.11,1.54-6.32,3.14-12.68,3.14s-9.58-1.6-12.69-3.14c-2.93-1.45-5.7-2.83-11.36-2.83
		c-5.66,0-8.43,1.38-11.36,2.83c-3.11,1.54-6.33,3.14-12.69,3.14c-6.36,0-9.57-1.6-12.68-3.14c-2.93-1.45-5.7-2.83-11.36-2.83
		c-5.66,0-8.43,1.38-11.36,2.83c-3.11,1.54-6.33,3.14-12.69,3.14s-9.57-1.6-12.68-3.14c-2.93-1.45-5.7-2.83-11.36-2.83
		c-5.66,0-8.43,1.38-11.36,2.83c-3.11,1.54-6.33,3.14-12.69,3.14c-6.36,0-9.58-1.6-12.69-3.14c-2.93-1.45-5.69-2.83-11.36-2.83
		v-2.98c6.37,0,9.58,1.59,12.69,3.14c2.93,1.45,5.7,2.83,11.36,2.83c5.66,0,8.43-1.38,11.36-2.83c3.11-1.55,6.33-3.14,12.69-3.14
		c6.36,0,9.57,1.59,12.68,3.14c2.93,1.45,5.7,2.83,11.36,2.83s8.43-1.38,11.36-2.83c3.11-1.55,6.33-3.14,12.69-3.14
		s9.57,1.59,12.68,3.14c2.93,1.45,5.7,2.83,11.36,2.83c5.66,0,8.43-1.38,11.36-2.83c3.11-1.55,6.33-3.14,12.69-3.14
		s9.58,1.59,12.69,3.14c2.93,1.45,5.7,2.83,11.36,2.83s8.43-1.38,11.36-2.83c3.11-1.55,6.32-3.14,12.68-3.14
		c6.37,0,9.58,1.59,12.69,3.14c2.93,1.45,5.7,2.83,11.36,2.83c5.67,0,8.44-1.38,11.37-2.83c3.11-1.55,6.32-3.14,12.69-3.14V232.58z
		 M239.25,183.5c3.26,0,5.95-0.96,8.08-2.88c2.12-1.91,3.18-4.53,3.18-7.86s-1.04-5.97-3.13-7.92c-2.09-1.95-4.8-2.92-8.13-2.92
		c-3.26,0-5.94,0.97-8.03,2.92c-2.09,1.95-3.14,4.59-3.14,7.92s1.05,5.95,3.14,7.86C233.31,182.54,235.99,183.5,239.25,183.5z
		 M230.6,288.94h4.68l-2.34-5.57L230.6,288.94z M208.86,282.48h-3.69v4.85h3.76c1.81,0,2.84-0.97,2.84-2.39v-0.05
		C211.77,283.3,210.66,282.48,208.86,282.48z M189.23,88.78c-2.87,0-5.05,2.4-5.37,5.63h10.65
		C194.26,91.4,192.53,88.78,189.23,88.78z M183.25,282.48h-2.87v10.18h2.87c3.04,0,5.09-2.05,5.09-5.04v-0.05
		C188.34,284.58,186.29,282.48,183.25,282.48z M156.85,101.77c3.58,0,6.08-2.88,6.08-6.37v-0.06c0-3.55-2.66-6.46-6.14-6.46
		c-3.59,0-6.05,2.91-6.05,6.4v0.06C150.74,98.89,153.36,101.77,156.85,101.77z M247.38,164.84c-2.09-1.95-4.8-2.92-8.13-2.92
		c-3.26,0-5.94,0.97-8.03,2.92c-2.09,1.95-3.14,4.59-3.14,7.92s1.05,5.95,3.14,7.86c2.09,1.92,4.77,2.88,8.03,2.88
		s5.95-0.96,8.08-2.88c2.12-1.91,3.18-4.53,3.18-7.86S249.47,166.79,247.38,164.84z M189.23,88.78c-2.87,0-5.05,2.4-5.37,5.63h10.65
		C194.26,91.4,192.53,88.78,189.23,88.78z M156.79,88.88c-3.59,0-6.05,2.91-6.05,6.4v0.06c0,3.55,2.62,6.43,6.11,6.43
		c3.58,0,6.08-2.88,6.08-6.37v-0.06C162.93,91.79,160.27,88.88,156.79,88.88z M183.25,282.48h-2.87v10.18h2.87
		c3.04,0,5.09-2.05,5.09-5.04v-0.05C188.34,284.58,186.29,282.48,183.25,282.48z M208.86,282.48h-3.69v4.85h3.76
		c1.81,0,2.84-0.97,2.84-2.39v-0.05C211.77,283.3,210.66,282.48,208.86,282.48z M247.38,164.84c-2.09-1.95-4.8-2.92-8.13-2.92
		c-3.26,0-5.94,0.97-8.03,2.92c-2.09,1.95-3.14,4.59-3.14,7.92s1.05,5.95,3.14,7.86c2.09,1.92,4.77,2.88,8.03,2.88
		s5.95-0.96,8.08-2.88c2.12-1.91,3.18-4.53,3.18-7.86S249.47,166.79,247.38,164.84z M208.86,282.48h-3.69v4.85h3.76
		c1.81,0,2.84-0.97,2.84-2.39v-0.05C211.77,283.3,210.66,282.48,208.86,282.48z M189.23,88.78c-2.87,0-5.05,2.4-5.37,5.63h10.65
		C194.26,91.4,192.53,88.78,189.23,88.78z M183.25,282.48h-2.87v10.18h2.87c3.04,0,5.09-2.05,5.09-5.04v-0.05
		C188.34,284.58,186.29,282.48,183.25,282.48z M156.79,88.88c-3.59,0-6.05,2.91-6.05,6.4v0.06c0,3.55,2.62,6.43,6.11,6.43
		c3.58,0,6.08-2.88,6.08-6.37v-0.06C162.93,91.79,160.27,88.88,156.79,88.88z M247.38,164.84c-2.09-1.95-4.8-2.92-8.13-2.92
		c-3.26,0-5.94,0.97-8.03,2.92c-2.09,1.95-3.14,4.59-3.14,7.92s1.05,5.95,3.14,7.86c2.09,1.92,4.77,2.88,8.03,2.88
		s5.95-0.96,8.08-2.88c2.12-1.91,3.18-4.53,3.18-7.86S249.47,166.79,247.38,164.84z M189.23,88.78c-2.87,0-5.05,2.4-5.37,5.63h10.65
		C194.26,91.4,192.53,88.78,189.23,88.78z M156.79,88.88c-3.59,0-6.05,2.91-6.05,6.4v0.06c0,3.55,2.62,6.43,6.11,6.43
		c3.58,0,6.08-2.88,6.08-6.37v-0.06C162.93,91.79,160.27,88.88,156.79,88.88z M183.25,282.48h-2.87v10.18h2.87
		c3.04,0,5.09-2.05,5.09-5.04v-0.05C188.34,284.58,186.29,282.48,183.25,282.48z M247.38,164.84c-2.09-1.95-4.8-2.92-8.13-2.92
		c-3.26,0-5.94,0.97-8.03,2.92c-2.09,1.95-3.14,4.59-3.14,7.92s1.05,5.95,3.14,7.86c2.09,1.92,4.77,2.88,8.03,2.88
		s5.95-0.96,8.08-2.88c2.12-1.91,3.18-4.53,3.18-7.86S249.47,166.79,247.38,164.84z M189.23,88.78c-2.87,0-5.05,2.4-5.37,5.63h10.65
		C194.26,91.4,192.53,88.78,189.23,88.78z M183.25,282.48h-2.87v10.18h2.87c3.04,0,5.09-2.05,5.09-5.04v-0.05
		C188.34,284.58,186.29,282.48,183.25,282.48z M156.79,88.88c-3.59,0-6.05,2.91-6.05,6.4v0.06c0,3.55,2.62,6.43,6.11,6.43
		c3.58,0,6.08-2.88,6.08-6.37v-0.06C162.93,91.79,160.27,88.88,156.79,88.88z M247.38,164.84c-2.09-1.95-4.8-2.92-8.13-2.92
		c-3.26,0-5.94,0.97-8.03,2.92c-2.09,1.95-3.14,4.59-3.14,7.92s1.05,5.95,3.14,7.86c2.09,1.92,4.77,2.88,8.03,2.88
		s5.95-0.96,8.08-2.88c2.12-1.91,3.18-4.53,3.18-7.86S249.47,166.79,247.38,164.84z M189.23,88.78c-2.87,0-5.05,2.4-5.37,5.63h10.65
		C194.26,91.4,192.53,88.78,189.23,88.78z M156.79,88.88c-3.59,0-6.05,2.91-6.05,6.4v0.06c0,3.55,2.62,6.43,6.11,6.43
		c3.58,0,6.08-2.88,6.08-6.37v-0.06C162.93,91.79,160.27,88.88,156.79,88.88z M247.38,164.84c-2.09-1.95-4.8-2.92-8.13-2.92
		c-3.26,0-5.94,0.97-8.03,2.92c-2.09,1.95-3.14,4.59-3.14,7.92s1.05,5.95,3.14,7.86c2.09,1.92,4.77,2.88,8.03,2.88
		s5.95-0.96,8.08-2.88c2.12-1.91,3.18-4.53,3.18-7.86S249.47,166.79,247.38,164.84z M189.23,88.78c-2.87,0-5.05,2.4-5.37,5.63h10.65
		C194.26,91.4,192.53,88.78,189.23,88.78z M156.79,88.88c-3.59,0-6.05,2.91-6.05,6.4v0.06c0,3.55,2.62,6.43,6.11,6.43
		c3.58,0,6.08-2.88,6.08-6.37v-0.06C162.93,91.79,160.27,88.88,156.79,88.88z M247.38,164.84c-2.09-1.95-4.8-2.92-8.13-2.92
		c-3.26,0-5.94,0.97-8.03,2.92c-2.09,1.95-3.14,4.59-3.14,7.92s1.05,5.95,3.14,7.86c2.09,1.92,4.77,2.88,8.03,2.88
		s5.95-0.96,8.08-2.88c2.12-1.91,3.18-4.53,3.18-7.86S249.47,166.79,247.38,164.84z M189.23,88.78c-2.87,0-5.05,2.4-5.37,5.63h10.65
		C194.26,91.4,192.53,88.78,189.23,88.78z M156.79,88.88c-3.59,0-6.05,2.91-6.05,6.4v0.06c0,3.55,2.62,6.43,6.11,6.43
		c3.58,0,6.08-2.88,6.08-6.37v-0.06C162.93,91.79,160.27,88.88,156.79,88.88z M247.38,164.84c-2.09-1.95-4.8-2.92-8.13-2.92
		c-3.26,0-5.94,0.97-8.03,2.92c-2.09,1.95-3.14,4.59-3.14,7.92s1.05,5.95,3.14,7.86c2.09,1.92,4.77,2.88,8.03,2.88
		s5.95-0.96,8.08-2.88c2.12-1.91,3.18-4.53,3.18-7.86S249.47,166.79,247.38,164.84z M189.23,88.78c-2.87,0-5.05,2.4-5.37,5.63h10.65
		C194.26,91.4,192.53,88.78,189.23,88.78z M156.79,88.88c-3.59,0-6.05,2.91-6.05,6.4v0.06c0,3.55,2.62,6.43,6.11,6.43
		c3.58,0,6.08-2.88,6.08-6.37v-0.06C162.93,91.79,160.27,88.88,156.79,88.88z M247.38,164.84c-2.09-1.95-4.8-2.92-8.13-2.92
		c-3.26,0-5.94,0.97-8.03,2.92c-2.09,1.95-3.14,4.59-3.14,7.92s1.05,5.95,3.14,7.86c2.09,1.92,4.77,2.88,8.03,2.88
		s5.95-0.96,8.08-2.88c2.12-1.91,3.18-4.53,3.18-7.86S249.47,166.79,247.38,164.84z M189.23,88.78c-2.87,0-5.05,2.4-5.37,5.63h10.65
		C194.26,91.4,192.53,88.78,189.23,88.78z M156.79,88.88c-3.59,0-6.05,2.91-6.05,6.4v0.06c0,3.55,2.62,6.43,6.11,6.43
		c3.58,0,6.08-2.88,6.08-6.37v-0.06C162.93,91.79,160.27,88.88,156.79,88.88z M247.38,164.84c-2.09-1.95-4.8-2.92-8.13-2.92
		c-3.26,0-5.94,0.97-8.03,2.92c-2.09,1.95-3.14,4.59-3.14,7.92s1.05,5.95,3.14,7.86c2.09,1.92,4.77,2.88,8.03,2.88
		s5.95-0.96,8.08-2.88c2.12-1.91,3.18-4.53,3.18-7.86S249.47,166.79,247.38,164.84z M189.23,88.78c-2.87,0-5.05,2.4-5.37,5.63h10.65
		C194.26,91.4,192.53,88.78,189.23,88.78z M156.79,88.88c-3.59,0-6.05,2.91-6.05,6.4v0.06c0,3.55,2.62,6.43,6.11,6.43
		c3.58,0,6.08-2.88,6.08-6.37v-0.06C162.93,91.79,160.27,88.88,156.79,88.88z M247.38,164.84c-2.09-1.95-4.8-2.92-8.13-2.92
		c-3.26,0-5.94,0.97-8.03,2.92c-2.09,1.95-3.14,4.59-3.14,7.92s1.05,5.95,3.14,7.86c2.09,1.92,4.77,2.88,8.03,2.88
		s5.95-0.96,8.08-2.88c2.12-1.91,3.18-4.53,3.18-7.86S249.47,166.79,247.38,164.84z M189.23,88.78c-2.87,0-5.05,2.4-5.37,5.63h10.65
		C194.26,91.4,192.53,88.78,189.23,88.78z M156.79,88.88c-3.59,0-6.05,2.91-6.05,6.4v0.06c0,3.55,2.62,6.43,6.11,6.43
		c3.58,0,6.08-2.88,6.08-6.37v-0.06C162.93,91.79,160.27,88.88,156.79,88.88z M247.38,164.84c-2.09-1.95-4.8-2.92-8.13-2.92
		c-3.26,0-5.94,0.97-8.03,2.92c-2.09,1.95-3.14,4.59-3.14,7.92s1.05,5.95,3.14,7.86c2.09,1.92,4.77,2.88,8.03,2.88
		s5.95-0.96,8.08-2.88c2.12-1.91,3.18-4.53,3.18-7.86S249.47,166.79,247.38,164.84z M189.23,88.78c-2.87,0-5.05,2.4-5.37,5.63h10.65
		C194.26,91.4,192.53,88.78,189.23,88.78z M156.79,88.88c-3.59,0-6.05,2.91-6.05,6.4v0.06c0,3.55,2.62,6.43,6.11,6.43
		c3.58,0,6.08-2.88,6.08-6.37v-0.06C162.93,91.79,160.27,88.88,156.79,88.88z M247.38,164.84c-2.09-1.95-4.8-2.92-8.13-2.92
		c-3.26,0-5.94,0.97-8.03,2.92c-2.09,1.95-3.14,4.59-3.14,7.92s1.05,5.95,3.14,7.86c2.09,1.92,4.77,2.88,8.03,2.88
		s5.95-0.96,8.08-2.88c2.12-1.91,3.18-4.53,3.18-7.86S249.47,166.79,247.38,164.84z M189.23,88.78c-2.87,0-5.05,2.4-5.37,5.63h10.65
		C194.26,91.4,192.53,88.78,189.23,88.78z M156.79,88.88c-3.59,0-6.05,2.91-6.05,6.4v0.06c0,3.55,2.62,6.43,6.11,6.43
		c3.58,0,6.08-2.88,6.08-6.37v-0.06C162.93,91.79,160.27,88.88,156.79,88.88z M247.38,164.84c-2.09-1.95-4.8-2.92-8.13-2.92
		c-3.26,0-5.94,0.97-8.03,2.92c-2.09,1.95-3.14,4.59-3.14,7.92s1.05,5.95,3.14,7.86c2.09,1.92,4.77,2.88,8.03,2.88
		s5.95-0.96,8.08-2.88c2.12-1.91,3.18-4.53,3.18-7.86S249.47,166.79,247.38,164.84z M189.23,88.78c-2.87,0-5.05,2.4-5.37,5.63h10.65
		C194.26,91.4,192.53,88.78,189.23,88.78z M156.79,88.88c-3.59,0-6.05,2.91-6.05,6.4v0.06c0,3.55,2.62,6.43,6.11,6.43
		c3.58,0,6.08-2.88,6.08-6.37v-0.06C162.93,91.79,160.27,88.88,156.79,88.88z M247.38,164.84c-2.09-1.95-4.8-2.92-8.13-2.92
		c-3.26,0-5.94,0.97-8.03,2.92c-2.09,1.95-3.14,4.59-3.14,7.92s1.05,5.95,3.14,7.86c2.09,1.92,4.77,2.88,8.03,2.88
		s5.95-0.96,8.08-2.88c2.12-1.91,3.18-4.53,3.18-7.86S249.47,166.79,247.38,164.84z M189.23,88.78c-2.87,0-5.05,2.4-5.37,5.63h10.65
		C194.26,91.4,192.53,88.78,189.23,88.78z M156.79,88.88c-3.59,0-6.05,2.91-6.05,6.4v0.06c0,3.55,2.62,6.43,6.11,6.43
		c3.58,0,6.08-2.88,6.08-6.37v-0.06C162.93,91.79,160.27,88.88,156.79,88.88z M247.38,164.84c-2.09-1.95-4.8-2.92-8.13-2.92
		c-3.26,0-5.94,0.97-8.03,2.92c-2.09,1.95-3.14,4.59-3.14,7.92s1.05,5.95,3.14,7.86c2.09,1.92,4.77,2.88,8.03,2.88
		s5.95-0.96,8.08-2.88c2.12-1.91,3.18-4.53,3.18-7.86S249.47,166.79,247.38,164.84z M189.23,88.78c-2.87,0-5.05,2.4-5.37,5.63h10.65
		C194.26,91.4,192.53,88.78,189.23,88.78z M156.79,88.88c-3.59,0-6.05,2.91-6.05,6.4v0.06c0,3.55,2.62,6.43,6.11,6.43
		c3.58,0,6.08-2.88,6.08-6.37v-0.06C162.93,91.79,160.27,88.88,156.79,88.88z M247.38,164.84c-2.09-1.95-4.8-2.92-8.13-2.92
		c-3.26,0-5.94,0.97-8.03,2.92c-2.09,1.95-3.14,4.59-3.14,7.92s1.05,5.95,3.14,7.86c2.09,1.92,4.77,2.88,8.03,2.88
		s5.95-0.96,8.08-2.88c2.12-1.91,3.18-4.53,3.18-7.86S249.47,166.79,247.38,164.84z M189.23,88.78c-2.87,0-5.05,2.4-5.37,5.63h10.65
		C194.26,91.4,192.53,88.78,189.23,88.78z M156.79,88.88c-3.59,0-6.05,2.91-6.05,6.4v0.06c0,3.55,2.62,6.43,6.11,6.43
		c3.58,0,6.08-2.88,6.08-6.37v-0.06C162.93,91.79,160.27,88.88,156.79,88.88z M247.38,164.84c-2.09-1.95-4.8-2.92-8.13-2.92
		c-3.26,0-5.94,0.97-8.03,2.92c-2.09,1.95-3.14,4.59-3.14,7.92s1.05,5.95,3.14,7.86c2.09,1.92,4.77,2.88,8.03,2.88
		s5.95-0.96,8.08-2.88c2.12-1.91,3.18-4.53,3.18-7.86S249.47,166.79,247.38,164.84z M189.23,88.78c-2.87,0-5.05,2.4-5.37,5.63h10.65
		C194.26,91.4,192.53,88.78,189.23,88.78z M156.79,88.88c-3.59,0-6.05,2.91-6.05,6.4v0.06c0,3.55,2.62,6.43,6.11,6.43
		c3.58,0,6.08-2.88,6.08-6.37v-0.06C162.93,91.79,160.27,88.88,156.79,88.88z M189.23,88.78c-2.87,0-5.05,2.4-5.37,5.63h10.65
		C194.26,91.4,192.53,88.78,189.23,88.78z M156.79,88.88c-3.59,0-6.05,2.91-6.05,6.4v0.06c0,3.55,2.62,6.43,6.11,6.43
		c3.58,0,6.08-2.88,6.08-6.37v-0.06C162.93,91.79,160.27,88.88,156.79,88.88z M189.23,88.78c-2.87,0-5.05,2.4-5.37,5.63h10.65
		C194.26,91.4,192.53,88.78,189.23,88.78z M156.79,88.88c-3.59,0-6.05,2.91-6.05,6.4v0.06c0,3.55,2.62,6.43,6.11,6.43
		c3.58,0,6.08-2.88,6.08-6.37v-0.06C162.93,91.79,160.27,88.88,156.79,88.88z M189.23,88.78c-2.87,0-5.05,2.4-5.37,5.63h10.65
		C194.26,91.4,192.53,88.78,189.23,88.78z M156.79,88.88c-3.59,0-6.05,2.91-6.05,6.4v0.06c0,3.55,2.62,6.43,6.11,6.43
		c3.58,0,6.08-2.88,6.08-6.37v-0.06C162.93,91.79,160.27,88.88,156.79,88.88z M189.23,88.78c-2.87,0-5.05,2.4-5.37,5.63h10.65
		C194.26,91.4,192.53,88.78,189.23,88.78z M156.79,88.88c-3.59,0-6.05,2.91-6.05,6.4v0.06c0,3.55,2.62,6.43,6.11,6.43
		c3.58,0,6.08-2.88,6.08-6.37v-0.06C162.93,91.79,160.27,88.88,156.79,88.88z M156.79,88.88c-3.59,0-6.05,2.91-6.05,6.4v0.06
		c0,3.55,2.62,6.43,6.11,6.43c3.58,0,6.08-2.88,6.08-6.37v-0.06C162.93,91.79,160.27,88.88,156.79,88.88z M156.79,88.88
		c-3.59,0-6.05,2.91-6.05,6.4v0.06c0,3.55,2.62,6.43,6.11,6.43c3.58,0,6.08-2.88,6.08-6.37v-0.06
		C162.93,91.79,160.27,88.88,156.79,88.88z"/>
	<path class="st0" d="M108.05,25.28v24.27c0,3.35-2.62,6.07-5.86,6.07c-3.23,0-5.85-2.72-5.85-6.07V25.28
		c0-3.35,2.62-6.07,5.85-6.07C105.43,19.21,108.05,21.93,108.05,25.28z"/>
	<path class="st0" d="M229.63,25.28v24.27c0,3.35-2.62,6.07-5.85,6.07c-3.24,0-5.86-2.72-5.86-6.07V25.28
		c0-3.35,2.62-6.07,5.86-6.07C227.01,19.21,229.63,21.93,229.63,25.28z"/>
</g>
</svg>
